<?xml version="1.0" encoding="UTF-8" standalone="no"?>
<!-- Created with Inkscape (http://www.inkscape.org/) -->

<svg
   xmlns:dc="http://purl.org/dc/elements/1.1/"
   xmlns:cc="http://creativecommons.org/ns#"
   xmlns:rdf="http://www.w3.org/1999/02/22-rdf-syntax-ns#"
   xmlns:svg="http://www.w3.org/2000/svg"
   xmlns="http://www.w3.org/2000/svg"
   xmlns:sodipodi="http://sodipodi.sourceforge.net/DTD/sodipodi-0.dtd"
   xmlns:inkscape="http://www.inkscape.org/namespaces/inkscape"
   id="svg4136"
   version="1.1"
   inkscape:version="0.91 r13725"
   width="460.5"
   height="915.90002"
   viewBox="0 0 460.5 915.90002"
   sodipodi:docname="cachorro.svg"
   inkscape:export-filename="C:\Users\Lislaine-PC\Pictures\cachorro.png"
   inkscape:export-xdpi="199.84482"
   inkscape:export-ydpi="199.84482">
  <metadata
     id="metadata4142">
    <rdf:RDF>
      <cc:Work
         rdf:about="">
        <dc:format>image/svg+xml</dc:format>
        <dc:type
           rdf:resource="http://purl.org/dc/dcmitype/StillImage" />
        <dc:title />
      </cc:Work>
    </rdf:RDF>
  </metadata>
  <defs
     id="defs4140" />
  <sodipodi:namedview
     pagecolor="#ffffff"
     bordercolor="#666666"
     borderopacity="1"
     objecttolerance="10"
     gridtolerance="10"
     guidetolerance="10"
     inkscape:pageopacity="0"
     inkscape:pageshadow="2"
     inkscape:window-width="1024"
     inkscape:window-height="537"
     id="namedview4138"
     showgrid="false"
     inkscape:zoom="0.42440064"
     inkscape:cx="-100.00037"
     inkscape:cy="387.28861"
     inkscape:window-x="-8"
     inkscape:window-y="-8"
     inkscape:window-maximized="1"
     inkscape:current-layer="svg4136" />
  <g
     id="g3420">
    <g
       inkscape:export-ydpi="199.84482"
       inkscape:export-xdpi="199.84482"
       id="g3400">
      <path
         style="fill:#dec773;fill-rule:evenodd;stroke:#000000;stroke-width:1px;stroke-linecap:butt;stroke-linejoin:miter;stroke-opacity:1;fill-opacity:1"
         d="m 209.31983,334.45606 c 11.29868,7.81462 10.26164,-2.18863 12.31567,-5.15943 8.54289,-24.52651 10.80465,-41.2016 12.73114,-57.45761 33.52906,-9.25301 45.5514,-25.28817 52.77722,-33.09758 3.41491,-2.62183 9.85328,-26.35695 -11.62888,-31.30852 -32.2606,-0.56525 -75.68597,22.28394 -96.60915,44.72646 -5.6526,4.9458 -6.63942,10.6353 -3.57811,18.78511 11.3243,42.45651 21.05215,52.0793 33.99211,63.51157 z"
         id="path4146"
         inkscape:connector-curvature="0"
         sodipodi:nodetypes="cccccccc" />
      <path
         style="fill:none;fill-rule:evenodd;stroke:#000000;stroke-width:1px;stroke-linecap:butt;stroke-linejoin:miter;stroke-opacity:1"
         d="m 208.73412,277.36337 c 11.41809,-1.28124 21.99665,-2.74904 25.93364,-5.69275"
         id="path4148"
         inkscape:connector-curvature="0"
         sodipodi:nodetypes="cc" />
      <path
         style="fill:#dec773;fill-rule:evenodd;stroke:#000000;stroke-width:1px;stroke-linecap:butt;stroke-linejoin:miter;stroke-opacity:1;fill-opacity:1"
         d="m 338.71855,284.63744 -3.16264,-58.82507 c -0.0585,-3.09819 0.8123,-5.96407 4.11143,-8.22286 10.69518,-10.07177 18.24286,-11.75019 26.56616,-15.49693 19.41288,-5.22828 36.49085,-11.83637 64.51782,-10.75297 29.07431,-0.11926 25.39443,22.81877 15.49693,33.52397 -9.7352,11.14088 -27.90113,20.27443 -55.34617,27.19868 l -19.60835,44.27694 z"
         id="path4150"
         inkscape:connector-curvature="0"
         sodipodi:nodetypes="ccccccccc" />
      <path
         style="fill:none;fill-rule:evenodd;stroke:#000000;stroke-width:1px;stroke-linecap:butt;stroke-linejoin:miter;stroke-opacity:1"
         d="m 369.71241,250.16468 c 5.82475,0.91279 7.98021,3.25756 22.13847,1.89758"
         id="path4152"
         inkscape:connector-curvature="0"
         sodipodi:nodetypes="cc" />
      <path
         style="fill:#dec773;fill-rule:evenodd;stroke:#000000;stroke-width:1px;stroke-linecap:butt;stroke-linejoin:miter;stroke-opacity:1;fill-opacity:1"
         d="m 181.87671,491.52104 2.1652,-105.01215 c -2.52607,-1.87508 -5.05213,3.51633 -7.5782,8.6608 4.26838,-23.56829 8.59801,-47.12782 22.73459,-69.28637 l 29.23019,-22.73459 27.06498,-22.73459 -8.11949,15.69769 c 8.08303,-8.53103 16.25894,-17.02491 31.39538,-22.73458 l -8.1195,12.44989 c 7.83043,-3.80138 17.08124,-6.65584 29.23019,-7.5782 l -12.44989,9.2021 c 9.69049,-4.35685 19.12052,-8.84393 40.05618,-7.5782 l -11.3673,8.1195 c 10.30906,-3.45507 23.67221,-4.61956 45.46918,0.5413 l -12.44989,2.1652 c 12.08903,-1.04928 24.17805,6.05689 36.26708,11.90859 l -13.5325,0.5413 12.4499,10.826 c -8.5194,-2.92597 -13.85206,-2.6652 -15.15639,1.6239 l -10.826,48.17567 c 0.40578,6.76663 -1.12358,17.40355 3.2478,16.23899 20.70611,-2.27447 42.50412,2.24055 66.03856,7.0369 l -12.44989,59.54297 c -5.47046,21.5522 -12.84315,42.78735 -43.84528,60.08427 -8.20404,3.91287 -11.34885,2.99317 -15.15639,2.7065 l -25.44109,-10.826 c 0,0 4.91136,17.17635 -6.49559,29.23019 l -35.72578,16.78029 c -7.92487,1.63336 -13.59852,4.76754 -25.44109,3.7891 l -23.27589,-2.1652 c -15.5636,-0.50333 -19.86946,-7.67864 -21.11069,-16.78029 -17.00171,-14.20774 -28.45112,-26.56472 -36.80838,-37.89098 z"
         id="path4154"
         inkscape:connector-curvature="0"
         sodipodi:nodetypes="cccccccccccccccccccccccccccccccc" />
      <path
         style="fill:#000000;fill-rule:evenodd;stroke:#000000;stroke-width:1px;stroke-linecap:butt;stroke-linejoin:miter;stroke-opacity:1"
         d="m 326.94504,383.26109 c 31.2975,-0.5984 44.54424,-11.7264 107.17734,5.9543 10.22314,5.79388 11.71148,9.75057 9.2021,22.19329 -9.11811,24.98401 -13.35371,25.86551 -28.68889,33.56058 -12.17479,4.53226 -22.20296,8.95909 -40.05618,-2.1652 -33.32592,-23.11912 -35.52109,-40.40122 -47.63437,-59.54297 z"
         id="path4156"
         inkscape:connector-curvature="0"
         sodipodi:nodetypes="cccccc" />
      <path
         style="fill:#ffffff;fill-rule:evenodd;stroke:#000000;stroke-width:1px;stroke-linecap:butt;stroke-linejoin:miter;stroke-opacity:1;fill-opacity:1;"
         d="m 420.58989,395.16969 -68.74507,6.49559 c -4.66244,0.11039 -8.51588,1.19682 -9.74339,-4.8717 l 0,-4.33039 c 0.36923,-1.98058 0.0541,-4.30335 4.3304,-4.3304 18.1437,-0.30405 48.36586,-6.03722 74.15806,7.0369 z"
         id="path4158"
         inkscape:connector-curvature="0"
         sodipodi:nodetypes="cccccc" />
      <path
         style="fill:none;fill-rule:evenodd;stroke:#000000;stroke-width:1px;stroke-linecap:butt;stroke-linejoin:miter;stroke-opacity:1"
         d="m 260.0939,394.77326 c 21.02714,-8.06673 44.06041,-8.10892 66.19718,-11.73709"
         id="path4160"
         inkscape:connector-curvature="0"
         sodipodi:nodetypes="cc" />
      <path
         style="fill:#ffffff;fill-rule:evenodd;stroke:#000000;stroke-width:1px;stroke-linecap:butt;stroke-linejoin:miter;stroke-opacity:1"
         d="m 272.30047,390.54791 c -0.169,-21.28683 0.90159,-42.21949 9.38967,-61.03286 11.62159,-17.67656 24.31436,-7.32304 27.23005,-0.46949 9.19187,19.09233 2.38195,37.2457 -10e-6,56.33803 z"
         id="path4162"
         inkscape:connector-curvature="0"
         sodipodi:nodetypes="ccccc" />
      <path
         style="fill:#ffffff;fill-rule:evenodd;stroke:#000000;stroke-width:1px;stroke-linecap:butt;stroke-linejoin:miter;stroke-opacity:1"
         d="m 324.41315,383.03617 c 3.06872,-20.84256 4.46411,-44.61346 12.20657,-57.27699 4.45706,-8.72554 15.54132,-8.172 19.24882,0.93897 7.37487,17.84037 -0.30986,35.68075 -1.87793,53.52112 z"
         id="path4164"
         inkscape:connector-curvature="0"
         sodipodi:nodetypes="ccccc" />
      <path
         style="fill:#000000;fill-rule:evenodd;stroke:#000000;stroke-width:1px;stroke-linecap:butt;stroke-linejoin:miter;stroke-opacity:1"
         d="m 211.73709,365.1958 c -1.70282,-2.18164 -4.83893,-6.96254 2.8169,-12.67606 6.62707,-1.00364 9.62367,-2.9149 11.26761,-5.16432 l 11.2676,-15.49295 c 10.49885,-6.56068 14.32222,-3.77568 18.77934,-1.87794 7.45695,6.76615 6.24898,12.29446 5.16432,17.84038 -9.42784,22.44356 -15.6454,19.66152 -25.35211,26.29108 -4.95684,1.84159 -8.14612,2.59704 -16.90141,-2.34742 z"
         id="path4166"
         inkscape:connector-curvature="0"
         sodipodi:nodetypes="ccccccccc" />
      <path
         style="fill:none;fill-rule:evenodd;stroke:#000000;stroke-width:1px;stroke-linecap:butt;stroke-linejoin:miter;stroke-opacity:1"
         d="m 202.8169,389.60894 c 10.88285,-4.02678 17.21759,-3.42373 26.76056,0.46949"
         id="path4168"
         inkscape:connector-curvature="0"
         sodipodi:nodetypes="cc" />
      <path
         style="fill:#000000;fill-rule:evenodd;stroke:#000000;stroke-width:1px;stroke-linecap:butt;stroke-linejoin:miter;stroke-opacity:1"
         d="m 282.62911,425.2897 c -0.71638,-3.2996 -3.34701,-6.21636 0,-10.32864 1.65197,-11.09903 -6.83742,-8.99814 -8.92019,-7.98122 -12.80463,12.04662 -5.21157,21.08867 0,23.00469 5.10503,2.07571 8.41867,1.09187 8.92019,-4.69483 z"
         id="path4170"
         inkscape:connector-curvature="0"
         sodipodi:nodetypes="ccccc" />
      <path
         style="fill:#000000;fill-rule:evenodd;stroke:#000000;stroke-width:1px;stroke-linecap:butt;stroke-linejoin:miter;stroke-opacity:1"
         d="m 341.95402,477.39428 c -3.09713,1.46762 -10.19687,2.82628 -7.47126,12.64368 1.68144,2.46989 8.38257,6.16176 23.56322,3.44827 6.23277,-0.77439 12.55045,-8.18996 13.7931,-13.21839 3.38049,-11.86727 -5.7187,-21.52644 -12.64368,-16.66667 -5.3553,5.38135 -10.42342,11.33707 -17.24138,13.79311 z"
         id="path4172"
         inkscape:connector-curvature="0"
         sodipodi:nodetypes="cccccc" />
      <path
         style="fill:none;fill-rule:evenodd;stroke:#000000;stroke-width:1px;stroke-linecap:butt;stroke-linejoin:miter;stroke-opacity:1"
         d="m 362.52723,509.36408 c 4.39445,1.78689 29.65929,-33.63345 35.94772,-59.91286"
         id="path4174"
         inkscape:connector-curvature="0"
         sodipodi:nodetypes="cc" />
      <path
         style="fill:#2b1100;fill-rule:evenodd;stroke:#000000;stroke-width:1px;stroke-linecap:butt;stroke-linejoin:miter;stroke-opacity:1"
         d="m 220.08734,500.61618 -2.75772,-13.11913 -5.10255,-81.64069 12.66376,-2.18341 c 1.8432,20.15795 33.35107,59.20401 97.81659,90.39301 l -0.43668,18.7773 c 0.14755,7.6695 -3.31067,9.32938 -6.55022,11.35371 L 275.98253,535.114 c -7.76205,0.38032 -14.07417,2.82386 -28.38428,-6.11354 -9.89811,-3.93887 -17.6128,-12.88279 -27.51091,-28.38428 z"
         id="path4176"
         inkscape:connector-curvature="0"
         sodipodi:nodetypes="cccccccccc" />
      <path
         style="fill:none;fill-rule:evenodd;stroke:#000000;stroke-width:1px;stroke-linecap:butt;stroke-linejoin:miter;stroke-opacity:1"
         d="m 218.77729,528.56378 -1.31004,-7.86026"
         id="path4178"
         inkscape:connector-curvature="0" />
      <path
         style="fill:none;fill-rule:evenodd;stroke:#000000;stroke-width:1px;stroke-linecap:butt;stroke-linejoin:miter;stroke-opacity:1"
         d="m 325.71272,526.33698 c 5.60347,12.17728 2.14523,13.99832 1.14018,18.62301 -1.07842,-5.44755 -0.53288,-10.51504 -3.42056,-15.96259 z"
         id="path4186"
         inkscape:connector-curvature="0"
         sodipodi:nodetypes="cccc" />
      <path
         style="fill:none;fill-rule:evenodd;stroke:#000000;stroke-width:1px;stroke-linecap:butt;stroke-linejoin:miter;stroke-opacity:1"
         d="m 204.62076,404.63311 c 4.98984,2.35423 10.66027,0.5707 17.09923,0 1.55058,-0.84607 3.63503,-1.23453 6.01249,-1.37184 2.8438,-0.16425 6.10682,0.0308 9.37681,0.23189"
         id="path4188"
         inkscape:connector-curvature="0"
         sodipodi:nodetypes="ccsc" />
      <path
         style="fill:none;fill-rule:evenodd;stroke:#000000;stroke-width:1px;stroke-linecap:butt;stroke-linejoin:miter;stroke-opacity:1"
         d="m 273.59949,312.08629 c -0.83626,0.85281 -1.23163,1.92607 -0.23108,3.69729 l 2.54188,4.39053 c 1.00135,1.59397 2.0027,1.46807 3.00405,0.92433 8.02537,-3.8467 14.23871,-10.9807 28.654,-3.23513 1.42455,0.65338 3.07573,1.98667 3.92837,0.92432 l 3.69729,-4.15945 c 1.11584,-1.98855 0.49778,-3.92924 -0.23108,-4.39053 -7.11867,-6.01947 -22.01224,-13.62559 -41.36343,1.84864 z"
         id="path4190"
         inkscape:connector-curvature="0"
         sodipodi:nodetypes="ccccccccc" />
      <path
         style="fill:none;fill-rule:evenodd;stroke:#000000;stroke-width:1px;stroke-linecap:butt;stroke-linejoin:miter;stroke-opacity:1"
         d="m 330.23873,313.51276 c -0.75362,0.63999 -1.50675,1.28023 -0.79576,2.65252 0.95194,0.99557 1.11698,1.51899 3.18302,3.18302 0.92042,1.08923 1.8573,1.45403 2.38727,1.59151 6.47723,-4.82968 12.8394,-9.95522 24.13793,-2.38727 0.53667,0.3948 0.89474,0.87889 2.38727,0.79576 l 3.97878,-2.38727 c 1.60081,-2.14232 1.13292,-3.34432 0,-4.24403 -12.15667,-10.42099 -23.82708,-7.06175 -35.27851,0.79576 z"
         id="path4192"
         inkscape:connector-curvature="0"
         sodipodi:nodetypes="ccccccccc" />
      <ellipse
         style="opacity:0.95700001;fill:none;fill-opacity:1;stroke:#000000;stroke-width:0.80800003;stroke-miterlimit:4;stroke-dasharray:none;stroke-opacity:1"
         id="path3356"
         cx="316.11832"
         cy="429.93741"
         rx="3.1195889"
         ry="3.4662097" />
      <ellipse
         style="opacity:0.95700001;fill:none;fill-opacity:1;stroke:#000000;stroke-width:0.80800003;stroke-miterlimit:4;stroke-dasharray:none;stroke-opacity:1"
         id="path3358"
         cx="324.09061"
         cy="451.25461"
         rx="3.1195889"
         ry="3.2928991" />
      <ellipse
         style="opacity:0.95700001;fill:none;fill-opacity:1;stroke:#000000;stroke-width:0.80800003;stroke-miterlimit:4;stroke-dasharray:none;stroke-opacity:1"
         id="path3360"
         cx="302.77341"
         cy="449.34821"
         rx="2.9462783"
         ry="3.1195889" />
      <path
         style="fill:#552200;fill-rule:evenodd;stroke:#000000;stroke-width:1px;stroke-linecap:butt;stroke-linejoin:miter;stroke-opacity:1"
         d="m 289.42851,357.84026 c -5.38326,4.49822 -4.87596,9.87776 -3.81283,11.43849 3.61106,5.2709 11.54206,10.47436 18.37091,4.50608 5.20999,-4.92261 8.08113,-10.51153 3.11959,-16.29119 -2.66741,-2.76758 -11.33162,-4.64671 -17.67767,0.34662 z"
         id="path3362"
         inkscape:connector-curvature="0"
         sodipodi:nodetypes="ccccc" />
      <path
         style="fill:#552200;fill-rule:evenodd;stroke:#000000;stroke-width:1px;stroke-linecap:butt;stroke-linejoin:miter;stroke-opacity:1"
         d="m 355.0173,369.18722 c -9.19742,5.60765 -18.17665,1.63088 -18.51211,-0.17301 -3.14267,-6.00569 0.11791,-11.44773 1.90311,-13.3218 6.12134,-4.91979 14.7578,-2.4656 16.78201,0.51903 0.40453,0.54995 0.87013,1.25259 1.73011,2.94118 0.066,3.34984 -1.34839,8.70295 -1.90312,10.0346 z"
         id="path3364"
         inkscape:connector-curvature="0"
         sodipodi:nodetypes="cccccc" />
      <path
         style="fill:#dcc36a;fill-rule:evenodd;stroke:#000000;stroke-width:1px;stroke-linecap:butt;stroke-linejoin:miter;stroke-opacity:1;fill-opacity:0.93627453"
         d="m 275.4133,713.88697 c -5.70004,17.38364 -22.67092,41.52549 -48.71697,53.26389 -14.37165,28.6689 -19.87922,60.13698 -23.38415,92.23747 l 18.18767,-2.59824 c 11.62708,0.98924 12.01838,6.89414 14.93987,11.69208 1.92501,6.62272 0.50205,20.53249 -1.29912,26.63194 -3.95315,7.35483 -11.04673,9.63666 -19.48679,9.7434 -2.75454,3.57664 -11.83661,2.93492 -19.48679,3.2478 -4.58854,-2.38172 -5.97568,-4.76344 -7.79471,-7.14516 -5.54122,7.64893 -12.92193,7.45584 -19.48679,8.44428 -15.35155,2.5662 -27.15617,-0.18802 -34.42667,-9.7434 -9.13548,-14.46311 -15.61783,-28.26295 -20.13635,-41.57182 -16.823038,13.18755 -12.80095,16.62496 -61.708166,44.81962 -4.240286,1.60575 -8.684317,3.00776 -16.888552,0.64956 l -6.330067,-3.9638 c -1.781918,0.0509 -3.386579,-0.9618 -4.59308,-4.36343 -2.503475,-0.30956 -5.223209,-0.87864 -10.564085,-4.59308 l -2.066887,-2.75585 -8.0378905,-2.75584 c 0.227337,-4.89929 0.8034102,-9.79857 1.6075781,-14.69786 0.4139206,-4.00548 2.3288076,-7.82334 7.3489284,-11.25305 4.689793,-3.55803 10.923058,-7.57911 21.357825,-12.86063 2.220935,-1.07266 2.993338,-0.6968 4.133772,-0.68896 l 5.282043,-4.82273 4.59308,-0.68896 c 1.197848,-2.08547 0.909665,-4.85722 6.200659,-5.05239 -13.409317,-15.72993 -27.516887,-30.55213 -35.36672,-53.50939 l 0.229654,13.54959 C 10.355672,767.6954 7.1823617,739.94313 27.788137,710.81898 l -4.133772,0.68896 16.766806,-24.04877 C 28.913343,672.96487 19.626574,658.21473 16.535933,642.7509 9.8134898,616.92197 14.706522,598.08711 28.784773,572.32007 l 2.449768,6.12442 6.736862,-18.37326 c 3.523858,5.84137 6.178184,2.98742 9.186629,3.67466 10.421753,-1.40724 10.745419,3.15256 8.574188,9.18663 -0.0078,7.89889 -5.532249,19.47556 15.31105,13.47372 12.617728,-2.63421 8.032403,3.3331 8.574187,6.73686 -0.464082,3.8788 -6.426527,7.7576 6.736862,11.6364 L 67.98106,622.54032 c -18.48547,17.93798 -8.701029,20.04481 -8.574188,27.55989 l 12.248839,29.39721 7.961746,9.79907 4.287094,0 C 117.12414,671.61244 126.18763,650.94777 139.63677,631.1145 l -11.02395,3.67466 c 17.75585,-21.18953 35.39485,-42.42496 37.35896,-69.81839 l -12.10661,9.00725 c 7.87526,-13.87649 18.26771,-28.6164 20.68079,-40.85423 l -5.51197,1.83732 9.18663,-18.37326 c 15.60444,14.52403 23.06853,26.2329 57.56954,42.2585 l -8.57419,20.82303 z"
         id="path3366"
         inkscape:connector-curvature="0"
         sodipodi:nodetypes="ccccccccccccccccccccccccccccccccccccccccccccccccccccccc" />
      <path
         style="fill:#000000;fill-rule:evenodd;stroke:#000000;stroke-width:1px;stroke-linecap:butt;stroke-linejoin:miter;stroke-opacity:1"
         d="m 38.112101,559.67418 c 5.53626,-15.18566 12.43326,-27.72706 21.433907,-38.29353 l -0.216531,11.25961 c 8.569951,-13.47969 22.584641,-23.69253 36.81026,-33.77882 l -2.16531,7.14552 c -1.923058,3.9661 1.003654,1.27479 1.082655,1.08265 L 114.1118,489.76714 c 1.98174,-2.0677 1.33334,-0.37196 1.29919,0.21653 l -1.73225,13.85798 36.81026,-37.24332 -19.48778,46.33762 8.4447,-7.14552 -8.66123,19.48778 c -0.43306,1.94878 0.14435,2.2375 1.73224,0.86613 l 6.2794,-6.06287 c 0.902,-0.50666 3.04822,-3.3151 1.29919,1.08265 l -19.92085,37.89292 11.69267,-8.87777 c -4.51913,13.78813 -23.44273,28.33438 -38.109444,42.65659 l 4.980212,-3.03143 c 0.33959,-0.10664 0.838466,-0.77305 0.866124,0.21653 l -12.775326,14.72411 c -5.444631,-1.55025 -9.724708,-3.52397 -8.877768,-7.36206 -0.441931,-4.95933 9.8628,-16.30857 -9.960423,-9.74389 -5.609909,-0.21483 -13.079222,3.90894 -13.85798,-7.57858 6.088877,-22.8506 -4.284232,-14.34503 -9.310831,-16.02329 -5.858978,0.80185 -5.10217,-2.50783 -6.709803,-4.36307 z"
         id="path3368"
         inkscape:connector-curvature="0"
         sodipodi:nodetypes="ccccccccccccccccccccccccccc" />
      <path
         style="fill:#fff6d5;fill-rule:evenodd;stroke:#000000;stroke-width:1px;stroke-linecap:butt;stroke-linejoin:miter;stroke-opacity:1;fill-opacity:1"
         d="m 235.53627,558.11395 c -7.74191,6.27203 -10.7146,14.1338 -14.68989,21.66137 l 7.46944,-7.71842 c -13.55799,17.2887 -12.95379,35.36418 -15.18786,53.28199 l 7.9674,-18.92257 c -3.4699,13.2487 -1.99681,25.67356 2.48981,37.59617 l 2.48982,-9.21231 c 1.20335,13.52798 2.6951,27.05597 11.70211,40.58395 l 0.74695,-13.19601 c 4.83574,13.64823 9.15029,27.33121 23.65322,40.33496 l -0.49796,-13.44498 15.18785,28.38386 1.24491,-6.72249 c 0.76668,-2.03946 1.80661,-2.43935 3.23676,-0.49797 l -0.24899,6.22453 c 9.81679,-9.74585 14.38337,-19.969 16.93073,-30.37571 l 2.48981,9.95925 c 6.58497,-10.43291 11.8893,-21.02589 13.19601,-32.11858 l 4.73064,9.95925 c 3.73061,-10.88533 4.71693,-21.31328 0.49797,-30.87368 l 5.47758,9.21231 c 4.76593,-12.28308 4.50442,-24.56615 1.99185,-36.84923 l 5.97555,15.18786 c 0.23546,-24.53426 12.35527,-48.66565 -24.15118,-74.4454 -18.79701,10.67978 -41.33889,14.46112 -72.70253,1.99185 z"
         id="path3370"
         inkscape:connector-curvature="0"
         sodipodi:nodetypes="ccccccccccccccccccccccccc" />
      <path
         style="fill:#800000;fill-rule:evenodd;stroke:#000000;stroke-width:1px;stroke-linecap:butt;stroke-linejoin:miter;stroke-opacity:1"
         d="m 181.50734,484.91346 c -8.12663,3.31344 -8.08098,8.11274 -9.21231,12.69805 -1.29221,9.3426 1.76118,14.3396 5.72657,18.42461 20.92649,23.38204 42.29219,37.03127 57.01671,41.82885 50.23565,19.2671 78.56015,-3.87216 92.37205,-14.93887 2.36391,-4.46563 2.51561,-9.81614 -1.74287,-16.93073 -39.47221,21.88812 -68.26889,36.20416 -110.2987,0.99592 -13.87026,-11.53209 -24.71614,-23.25706 -33.61247,-35.10635 z"
         id="path3372"
         inkscape:connector-curvature="0"
         sodipodi:nodetypes="ccccccccc" />
      <path
         style="fill:none;fill-rule:evenodd;stroke:#000000;stroke-width:1px;stroke-linecap:butt;stroke-linejoin:miter;stroke-opacity:1"
         d="m 138.68256,877.30793 c 6.54432,-0.97389 12.79305,-3.42569 18.6736,-7.71842 5.77301,-2.42091 8.74553,-2.74144 11.9511,-3.23676 l 11.9511,0.74695 c 10.3296,-0.7799 12.01329,4.42584 13.94295,9.46129 0.51922,8.36167 -0.0789,16.68966 -6.72249,24.40016"
         id="path3374"
         inkscape:connector-curvature="0"
         sodipodi:nodetypes="cccccc" />
      <path
         style="fill:none;fill-rule:evenodd;stroke:#000000;stroke-width:1px;stroke-linecap:butt;stroke-linejoin:miter;stroke-opacity:1"
         d="m 165.07458,880.79367 c 0.46271,10.0502 -1.21013,19.74447 -4.73065,29.1308"
         id="path3376"
         inkscape:connector-curvature="0"
         sodipodi:nodetypes="cc" />
      <path
         style="fill:none;fill-rule:evenodd;stroke:#000000;stroke-width:1px;stroke-linecap:butt;stroke-linejoin:miter;stroke-opacity:1"
         d="m 183.25021,879.79774 c 2.53311,7.8163 0.46495,17.35808 -2.24083,27.13896"
         id="path3378"
         inkscape:connector-curvature="0"
         sodipodi:nodetypes="cc" />
      <path
         style="fill:none;fill-rule:evenodd;stroke:#000000;stroke-width:1px;stroke-linecap:butt;stroke-linejoin:miter;stroke-opacity:1"
         d="m 189.9727,867.84664 12.94703,-8.21638"
         id="path3380"
         inkscape:connector-curvature="0" />
      <path
         style="fill:none;fill-rule:evenodd;stroke:#000000;stroke-width:1px;stroke-linecap:butt;stroke-linejoin:miter;stroke-opacity:1"
         d="m 209.39324,877.55691 c 5.91903,9.79326 5.26067,19.58653 1.24491,29.37979"
         id="path3382"
         inkscape:connector-curvature="0"
         sodipodi:nodetypes="cc" />
      <path
         style="fill:none;fill-rule:evenodd;stroke:#000000;stroke-width:1px;stroke-linecap:butt;stroke-linejoin:miter;stroke-opacity:1"
         d="m 221.8423,872.07932 c 5.07019,6.09972 9.39614,13.17267 5.97555,30.37572"
         id="path3384"
         inkscape:connector-curvature="0"
         sodipodi:nodetypes="cc" />
      <path
         style="fill:none;fill-rule:evenodd;stroke:#000000;stroke-width:1px;stroke-linecap:butt;stroke-linejoin:miter;stroke-opacity:1"
         d="m 162.58476,867.0997 c 1.58707,-34.19343 0.42574,-68.38685 12.69805,-102.58028"
         id="path3386"
         inkscape:connector-curvature="0"
         sodipodi:nodetypes="cc" />
      <path
         style="fill:none;fill-rule:evenodd;stroke:#000000;stroke-width:1px;stroke-linecap:butt;stroke-linejoin:miter;stroke-opacity:1"
         d="m 169.55624,790.16449 57.76365,-23.9022"
         id="path3388"
         inkscape:connector-curvature="0" />
      <path
         style="fill:none;fill-rule:evenodd;stroke:#000000;stroke-width:1px;stroke-linecap:butt;stroke-linejoin:miter;stroke-opacity:1"
         d="m 114.2824,857.88739 c -5.62296,-13.31124 -7.44274,-36.9454 -8.46536,-62.74328 l -5.72657,7.22046 6.97147,-17.67767 -10.706192,4.97962 22.408312,-30.62469 14.93888,-13.44499"
         id="path3390"
         inkscape:connector-curvature="0"
         sodipodi:nodetypes="ccccccc" />
      <path
         style="fill:none;fill-rule:evenodd;stroke:#000000;stroke-width:1px;stroke-linecap:butt;stroke-linejoin:miter;stroke-opacity:1"
         d="M 109.05379,772.23784 C 103.80104,741.00738 94.104266,725.57789 82.91076,715.47011"
         id="path3392"
         inkscape:connector-curvature="0"
         sodipodi:nodetypes="cc" />
      <path
         style="fill:none;fill-rule:evenodd;stroke:#000000;stroke-width:1px;stroke-linecap:butt;stroke-linejoin:miter;stroke-opacity:1"
         d="m 54.775877,835.47908 15.934801,9.46128"
         id="path3394"
         inkscape:connector-curvature="0" />
      <path
         style="fill:none;fill-rule:evenodd;stroke:#000000;stroke-width:1px;stroke-linecap:butt;stroke-linejoin:miter;stroke-opacity:1"
         d="m 48.800327,840.20972 15.187857,10.20823"
         id="path3396"
         inkscape:connector-curvature="0" />
      <path
         style="fill:none;fill-rule:evenodd;stroke:#000000;stroke-width:1px;stroke-linecap:butt;stroke-linejoin:miter;stroke-opacity:1"
         d="m 38.592095,844.94036 18.424614,9.21231"
         id="path3398"
         inkscape:connector-curvature="0" />
      <path
         style="fill:none;fill-rule:evenodd;stroke:#000000;stroke-width:1px;stroke-linecap:butt;stroke-linejoin:miter;stroke-opacity:1"
         d="m 12.698044,887.76514 c 2.587139,-8.02034 0.795188,-15.60862 10.706195,-22.40831"
         id="path3400"
         inkscape:connector-curvature="0"
         sodipodi:nodetypes="cc" />
      <path
         style="fill:none;fill-rule:evenodd;stroke:#000000;stroke-width:1px;stroke-linecap:butt;stroke-linejoin:miter;stroke-opacity:1"
         d="m 24.898126,894.9856 c 3.07943,-8.8402 5.657895,-17.882 11.951101,-24.15118"
         id="path3402"
         inkscape:connector-curvature="0"
         sodipodi:nodetypes="cc" />
      <path
         style="fill:none;fill-rule:evenodd;stroke:#000000;stroke-width:1px;stroke-linecap:butt;stroke-linejoin:miter;stroke-opacity:1"
         d="m 40.583946,687.58421 7.718419,-4.97963 c 3.973305,-2.50018 1.508527,-4.08064 1.244906,-5.97555 l -3.9837,-1.74287 c 8.904132,-6.33317 17.404152,-3.77587 25.64507,4.48167"
         id="path3404"
         inkscape:connector-curvature="0"
         sodipodi:nodetypes="ccccc" />
      <path
         style="fill:none;fill-rule:evenodd;stroke:#000000;stroke-width:1px;stroke-linecap:butt;stroke-linejoin:miter;stroke-opacity:1"
         d="m 79.674004,689.0781 11.453138,7.22045"
         id="path3406"
         inkscape:connector-curvature="0" />
      <path
         style="fill:#000000;fill-rule:evenodd;stroke:#000000;stroke-width:1px;stroke-linecap:butt;stroke-linejoin:miter;stroke-opacity:1"
         d="m 112.53953,667.66571 -0.49796,5.47758 c 0.44987,7.36474 3.70591,6.31095 6.72249,5.97556 8.79635,-2.10535 10.84862,0.004 14.6899,0.99592 7.03376,7.99251 17.25607,2.71288 20.16748,-1.49389 l 12.69804,-31.62062 c 1.77458,-3.16658 3.50282,-6.34475 10.45722,-8.21638 6.11738,-3.37036 15.58799,-11.55938 11.20415,-21.91035 -3.63176,-6.88848 -6.72962,-13.77696 -4.48166,-20.66544 -1.7779,2.23906 10.42786,-26.03323 -14.93888,-21.41239 l -4.97962,4.23268 c -6.8262,23.90979 -21.20023,39.58557 -35.10636,55.7718 3.048,0.23467 7.16045,-2.5992 12.20008,-4.23268 -9.31907,12.37791 -15.80399,25.32266 -28.13488,37.09821 z"
         id="path3408"
         inkscape:connector-curvature="0"
         sodipodi:nodetypes="cccccccccccccc" />
      <path
         style="fill:none;fill-rule:evenodd;stroke:#000000;stroke-width:1px;stroke-linecap:butt;stroke-linejoin:miter;stroke-opacity:1"
         d="m 184.03881,522.09983 c 0.80441,-6.41838 -0.0507,-13.51167 6.12442,-20.82303"
         id="path3410"
         inkscape:connector-curvature="0"
         sodipodi:nodetypes="cc" />
      <path
         style="fill:none;fill-rule:evenodd;stroke:#000000;stroke-width:1px;stroke-linecap:butt;stroke-linejoin:miter;stroke-opacity:1"
         d="m 192.91922,530.67402 c 0.83255,-7.33334 0.69414,-15.63765 4.59332,-19.90436"
         id="path3412"
         inkscape:connector-curvature="0"
         sodipodi:nodetypes="cc" />
      <path
         style="fill:none;fill-rule:evenodd;stroke:#000000;stroke-width:1px;stroke-linecap:butt;stroke-linejoin:miter;stroke-opacity:1"
         d="m 220.78533,551.19083 c -0.58995,-5.24383 -0.32358,-9.34588 1.53111,-11.33018"
         id="path3414"
         inkscape:connector-curvature="0"
         sodipodi:nodetypes="cc" />
      <path
         style="fill:none;fill-rule:evenodd;stroke:#000000;stroke-width:1px;stroke-linecap:butt;stroke-linejoin:miter;stroke-opacity:1"
         d="m 228.74708,555.1717 c 0.51037,-4.04695 1.02073,-8.41411 1.5311,-10.10529"
         id="path3416"
         inkscape:connector-curvature="0"
         sodipodi:nodetypes="cc" />
      <path
         style="fill:none;fill-rule:evenodd;stroke:#000000;stroke-width:1px;stroke-linecap:butt;stroke-linejoin:miter;stroke-opacity:1"
         d="m 274.68023,565.27699 -2.14355,-17.14837"
         id="path3418"
         inkscape:connector-curvature="0" />
      <path
         style="fill:none;fill-rule:evenodd;stroke:#000000;stroke-width:1px;stroke-linecap:butt;stroke-linejoin:miter;stroke-opacity:1"
         d="m 288.15395,563.43967 -2.44977,-18.06704"
         id="path3420"
         inkscape:connector-curvature="0" />
      <path
         style="fill:none;fill-rule:evenodd;stroke:#000000;stroke-width:1px;stroke-linecap:butt;stroke-linejoin:miter;stroke-opacity:1"
         d="m 280.80465,533.12379 c -4.08295,-1.81649 -7.85967,-3.07805 -11.94262,-2.44977"
         id="path3422"
         inkscape:connector-curvature="0"
         sodipodi:nodetypes="cc" />
      <path
         style="fill:#000000;fill-rule:evenodd;stroke:#000000;stroke-width:1px;stroke-linecap:butt;stroke-linejoin:miter;stroke-opacity:1"
         d="m 129.53148,705.21998 c 1.20125,-8.80304 6.87033,-6.42366 8.88041,-3.06221 3.0059,10.06114 0.45264,17.59539 -5.51198,23.57902 -3.05822,0.24784 -9.1519,0.1229 -8.88041,-6.73686 2.52525,-4.59332 5.34556,-9.18663 5.51198,-13.77995 z"
         id="path3424"
         inkscape:connector-curvature="0"
         sodipodi:nodetypes="ccccc" />
      <path
         style="fill:#000000;fill-rule:evenodd;stroke:#000000;stroke-width:1px;stroke-linecap:butt;stroke-linejoin:miter;stroke-opacity:1"
         d="m 201.18719,648.87532 c -1.02653,3.35684 -1.42414,7.97154 -7.96175,0.30622 0.5586,-5.50001 -2.62558,-10.16829 4.59332,-17.14837 l 5.20576,-6.43064 c 5.98118,-2.51067 7.79572,-0.85471 6.43064,3.98087 -2.03394,4.98655 -4.60527,11.04786 -8.26797,19.29192 z"
         id="path3426"
         inkscape:connector-curvature="0"
         sodipodi:nodetypes="cccccc" />
      <path
         style="fill:#000000;fill-rule:evenodd;stroke:#000000;stroke-width:1px;stroke-linecap:butt;stroke-linejoin:miter;stroke-opacity:1"
         d="m 197.81876,558.54013 c -0.0861,-2.46698 -0.77003,-5.05354 3.06221,-6.73686 12.61465,1.48047 8.87904,10.14497 10.10529,12.86128 l -4.89953,7.96175 c -2.02929,-0.45094 -4.95369,2.231 -5.51198,-3.36844 0.49101,-4.41838 0.75872,-8.70278 -2.75599,-10.71773 z"
         id="path3428"
         inkscape:connector-curvature="0"
         sodipodi:nodetypes="cccccc" />
      <path
         style="fill:#000000;fill-rule:evenodd;stroke:#000000;stroke-width:1px;stroke-linecap:butt;stroke-linejoin:miter;stroke-opacity:1"
         d="m 229.66574,708.89464 c -4.86127,4.45084 -4.09702,7.96409 -4.28709,11.63639 2.67529,10.17441 -2.64681,11.46283 -7.04308,13.77995 -15.62834,2.28436 -19.80279,2.63775 -22.04792,11.02395 -12.41817,12.17226 -17.53694,7.40518 -22.96657,-1.83732 -1.98831,-7.52368 -0.34959,-14.01107 3.36843,-19.90437 l 17.4546,-24.8039 c 10.63072,-6.40881 21.33164,-11.7647 32.76564,-6.12442 6.7714,3.90536 4.77684,10.06416 2.75599,16.22972 z"
         id="path3430"
         inkscape:connector-curvature="0"
         sodipodi:nodetypes="ccccccccc" />
      <path
         style="fill:#000000;fill-rule:evenodd;stroke:#000000;stroke-width:1px;stroke-linecap:butt;stroke-linejoin:miter;stroke-opacity:1"
         d="m 187.40725,797.08628 c 0.6233,-4.73375 2.76168,-7.69991 8.26796,-6.73686 8.38923,6.27273 7.04927,14.97776 2.44977,24.49768 l -6.43064,5.8182 c -9.48718,1.46825 -10.59798,-1.94971 -10.41151,-6.12442 l 3.67465,-4.59332 c 2.73561,-2.36808 3.79413,-6.41324 2.44977,-12.86128 z"
         id="path3432"
         inkscape:connector-curvature="0"
         sodipodi:nodetypes="ccccccc" />
      <path
         style="fill:#000000;fill-rule:evenodd;stroke:#000000;stroke-width:1px;stroke-linecap:butt;stroke-linejoin:miter;stroke-opacity:1"
         d="m 145.14875,802.59826 c -3.38122,4.01063 -3.83559,8.99688 -4.89954,13.77994 -3.95231,2.62324 -8.91222,14.10103 -15.61727,-1.5311 -0.71211,-11.05598 -0.6534,-21.4696 8.26797,-24.49768 8.82531,-4.23754 11.71751,7.8e-4 15.00483,3.67465 z"
         id="path3434"
         inkscape:connector-curvature="0"
         sodipodi:nodetypes="cccccc" />
      <path
         style="fill:#000000;fill-rule:evenodd;stroke:#000000;stroke-width:1px;stroke-linecap:butt;stroke-linejoin:miter;stroke-opacity:1"
         d="m 83.904551,798.00494 c -5.763987,-0.0742 -10.403307,2.84449 -6.12442,10.41152 2.323294,2.20455 5.041396,3.42207 5.818199,9.49285 1.12281,4.43082 2.245621,5.83035 3.368431,7.96174 3.293581,3.48415 5.769068,0.42354 8.267967,-2.44976 1.003592,-10.86228 3.45321,-22.44756 -11.330177,-25.41635 z"
         id="path3436"
         inkscape:connector-curvature="0"
         sodipodi:nodetypes="cccccc" />
      <path
         style="fill:#000000;fill-rule:evenodd;stroke:#000000;stroke-width:1px;stroke-linecap:butt;stroke-linejoin:miter;stroke-opacity:1"
         d="m 30.315878,739.21051 c 3.871756,-1.54161 7.927348,-5.4731 11.023956,3.06221 -0.02513,6.82611 -2.842473,14.11759 1.531105,20.21059 4.211575,19.48979 -6.207718,12.58271 -9.492851,8.57419 -14.292109,-14.5178 -6.29441,-27.53474 -3.06221,-31.84699 z"
         id="path3438"
         inkscape:connector-curvature="0"
         sodipodi:nodetypes="ccccc" />
      <path
         style="fill:#000000;fill-rule:evenodd;stroke:#000000;stroke-width:1px;stroke-linecap:butt;stroke-linejoin:miter;stroke-opacity:1"
         d="m 146.98607,843.63187 c 2.05727,-3.46205 4.4757,-4.39589 7.34931,-2.14355 5.72645,12.12899 -0.47554,15.31166 -3.98087,20.51681 -6.42106,3.02209 -8.44048,1.01374 -9.18663,-2.44977 -1.05223,-5.27327 1.78134,-6.12477 4.28709,-7.3493 2.24314,-4.28461 0.73948,-5.7411 1.5311,-8.57419 z"
         id="path3440"
         inkscape:connector-curvature="0"
         sodipodi:nodetypes="cccccc" />
      <g
         transform="translate(0.4377681,1.4114823)"
         id="g4251"
         style="fill:#eba9a9;fill-opacity:1">
        <path
           sodipodi:nodetypes="cccccccccccc"
           inkscape:connector-curvature="0"
           id="path4180"
           d="m 227.07424,510.65985 c 6.95524,10.82844 17.94983,18.51517 32.31441,23.58079 13.26052,1.94539 17.38948,0.3412 21.39738,-1.31005 8.24674,8.92585 12.32092,18.51416 12.66375,39.30131 11.96513,22.72052 27.55456,3.87607 26.20088,5.24018 14.8305,-17.97383 7.34917,-27.44791 6.11353,-39.30131 -1.83667,-11.69974 -5.16586,-16.39183 -11.35371,-23.14411 -7.22702,-5.94887 -12.71029,-5.27145 -17.90393,-3.49345 -13.59811,-13.58908 -17.38301,-8.73328 -23.58079,-7.86026 l -12.66375,4.80349 c -4.22686,2.27203 -7.94413,1.39212 -11.79039,1.31005 z"
           style="fill:#eba9a9;fill-rule:evenodd;stroke:#000000;stroke-width:1px;stroke-linecap:butt;stroke-linejoin:miter;stroke-opacity:1;fill-opacity:1" />
        <path
           sodipodi:nodetypes="cc"
           inkscape:connector-curvature="0"
           id="path4182"
           d="m 296.06792,511.51458 c 9.87208,8.25019 9.4796,19.57975 9.50154,30.78498"
           style="fill:#eba9a9;fill-rule:evenodd;stroke:#000000;stroke-width:1px;stroke-linecap:butt;stroke-linejoin:miter;stroke-opacity:1;fill-opacity:1" />
      </g>
    </g>
    <ellipse
       ry="3.8528254"
       rx="4.3060989"
       cy="366.82834"
       cx="303.08261"
       id="path3401"
       style="opacity:1;fill:#ffffff;fill-opacity:1;stroke:#ffffff;stroke-width:0.5;stroke-linejoin:miter;stroke-miterlimit:4;stroke-dasharray:none;stroke-dashoffset:0;stroke-opacity:1" />
    <ellipse
       ry="3.8528254"
       rx="4.3060989"
       cy="364.71936"
       cx="350.38049"
       id="path3401-2"
       style="opacity:1;fill:#ffffff;fill-opacity:1;stroke:#ffffff;stroke-width:0.5;stroke-linejoin:miter;stroke-miterlimit:4;stroke-dasharray:none;stroke-dashoffset:0;stroke-opacity:1" />
  </g>
</svg>
