<?xml version="1.0" encoding="UTF-8" standalone="no"?>
<!-- Created with Inkscape (http://www.inkscape.org/) -->

<svg
   xmlns:dc="http://purl.org/dc/elements/1.1/"
   xmlns:cc="http://creativecommons.org/ns#"
   xmlns:rdf="http://www.w3.org/1999/02/22-rdf-syntax-ns#"
   xmlns:svg="http://www.w3.org/2000/svg"
   xmlns="http://www.w3.org/2000/svg"
   xmlns:sodipodi="http://sodipodi.sourceforge.net/DTD/sodipodi-0.dtd"
   xmlns:inkscape="http://www.inkscape.org/namespaces/inkscape"
   id="svg2"
   version="1.1"
   inkscape:version="0.91 r13725"
   width="556.20001"
   height="856.79999"
   viewBox="0 0 556.20001 856.79999"
   sodipodi:docname="menino.svg">
  <metadata
     id="metadata8">
    <rdf:RDF>
      <cc:Work
         rdf:about="">
        <dc:format>image/svg+xml</dc:format>
        <dc:type
           rdf:resource="http://purl.org/dc/dcmitype/StillImage" />
        <dc:title />
      </cc:Work>
    </rdf:RDF>
  </metadata>
  <defs
     id="defs6" />
  <sodipodi:namedview
     pagecolor="#ffffff"
     bordercolor="#666666"
     borderopacity="1"
     objecttolerance="10"
     gridtolerance="10"
     guidetolerance="10"
     inkscape:pageopacity="0"
     inkscape:pageshadow="2"
     inkscape:window-width="1024"
     inkscape:window-height="537"
     id="namedview4"
     showgrid="false"
     inkscape:zoom="0.36388287"
     inkscape:cx="-717.58692"
     inkscape:cy="268.71597"
     inkscape:window-x="-8"
     inkscape:window-y="-8"
     inkscape:window-maximized="1"
     inkscape:current-layer="svg2" />
  <g
     id="g3370"
     inkscape:export-xdpi="247.54269"
     inkscape:export-ydpi="247.54269">
    <path
       sodipodi:nodetypes="cccccccccccccccccccccccc"
       inkscape:connector-curvature="0"
       id="path3340"
       d="m 135.23644,433.84576 c -5.77632,6.18186 -11.61137,12.34565 -48.104238,9.07627 -18.177437,-2.56228 -14.924662,-13.16088 -14.522033,-22.69068 8.401985,-13.06864 13.558308,-28.91927 38.120341,-28.13644 12.12467,0.90045 16.13529,4.33654 21.78305,7.26102 l 9.07627,9.98389 6.35339,-2.72288 c -2.41867,-45.29794 -6.18437,-91.33061 17.24491,-122.52966 l 10.89153,-3.6305 9.07627,10.89152 -0.90763,-16.33729 c 23.65561,1.79233 31.03163,10.0965 43.5661,16.33729 l -0.90762,-20.87542 c 21.63842,7.13925 38.86828,19.78921 50.82711,39.02796 l -4.53813,-28.13644 38.12034,27.22882 -1.81526,-17.24492 35.39746,22.69068 -0.90763,-24.50593 24.50594,10.89152 c 6.62551,40.84322 3.93399,81.68644 -13.61441,122.52966 -16.89413,29.59981 -28.51291,58.28074 -67.16441,91.67034 -16.62381,17.08679 -55.11026,10.14689 -65.34915,5.44576 -29.04407,-11.49712 -58.08813,-29.31333 -87.1322,-86.22457 z"
       style="fill:#fcf2d6;fill-rule:evenodd;stroke:#000000;stroke-width:1px;stroke-linecap:butt;stroke-linejoin:miter;stroke-opacity:1;fill-opacity:1;opacity:1" />
    <path
       sodipodi:nodetypes="cccccccccccccccccccccccccccccccc"
       inkscape:connector-curvature="0"
       id="path3342"
       d="m 133.42118,400.26355 c 0.29631,-65.7763 -16.93589,-99.12486 -50.827113,-101.65423 l 19.967793,-11.79916 c -8.677775,-23.31859 -1.54406,-42.96459 17.24492,-59.90338 l 0,16.33728 c 14.16205,-31.26142 30.53024,-47.07984 48.10423,-54.45762 l -1.81525,20.87542 c 46.47033,-62.85558 76.42464,-66.25347 106.19237,-68.97966 l -37.21271,35.39746 c 33.16848,-16.12007 72.69541,-16.97984 114.36102,-12.70678 l -52.64238,25.41356 c 27.51213,0.8996 63.38505,-9.52632 134.32882,29.95169 -17.28842,-2.20284 -34.59169,-4.33139 -53.55,1.81526 11.17945,7.57087 14.37943,19.13147 19.06017,29.95169 -11.19407,-10.30398 -22.38814,-9.40412 -33.58221,-11.79915 25.58774,10.55003 39.66023,31.17591 51.73475,53.55 l -32.67458,-19.9678 17.24492,48.10424 C 383.93534,304.7459 364.49864,295.79293 343.99067,288.62542 l 0.90763,25.41356 -36.30508,-22.69068 1.81525,18.15254 -36.30508,-29.95169 5.44576,29.95169 c -14.03295,-15.73578 -27.85841,-31.61977 -53.55,-39.02796 l 0.90763,19.96779 c -11.6909,-12.0914 -27.46788,-15.91188 -44.47373,-17.24491 l 3.63051,15.42966 c -6.13491,-7.52987 -12.44182,-14.37172 -23.59831,-1.81526 -25.65758,51.27664 -15.70352,82.53114 -14.30934,119.48627 l -3.8432,3.04339 c -4.33277,-0.91864 -7.31668,-5.88386 -10.89153,-9.07627 z"
       style="fill:#552200;fill-rule:evenodd;stroke:#000000;stroke-width:1px;stroke-linecap:butt;stroke-linejoin:miter;stroke-opacity:1" />
    <path
       sodipodi:nodetypes="cc"
       inkscape:connector-curvature="0"
       id="path3344"
       d="m 128.88305,417.50847 c -15.32638,-21.98961 -39.500823,-7.60464 -44.473729,5.44576"
       style="fill:none;fill-rule:evenodd;stroke:#000000;stroke-width:1px;stroke-linecap:butt;stroke-linejoin:miter;stroke-opacity:1" />
    <path
       sodipodi:nodetypes="cc"
       inkscape:connector-curvature="0"
       id="path3346"
       d="m 93.485592,411.15508 c 14.261148,13.61636 26.240718,10.34694 29.951698,0"
       style="fill:none;fill-rule:evenodd;stroke:#000000;stroke-width:1px;stroke-linecap:butt;stroke-linejoin:miter;stroke-opacity:1" />
    <path
       sodipodi:nodetypes="cccc"
       inkscape:connector-curvature="0"
       id="path3348"
       d="m 276.82627,447.46016 c 10.60318,-5.83351 20.9971,-10.41143 30.85932,-11.79915 18.84134,2.69589 15.21659,16.71853 14.38143,21.78305 -8.36515,16.29368 -31.02192,21.40589 -57.0399,17.24492"
       style="fill:none;fill-rule:evenodd;stroke:#000000;stroke-width:1px;stroke-linecap:butt;stroke-linejoin:miter;stroke-opacity:1" />
    <path
       sodipodi:nodetypes="cc"
       inkscape:connector-curvature="0"
       id="path3350"
       d="m 275.91864,424.76949 c 9.86417,-11.51875 37.863,-7.36291 49.01186,0.90762"
       style="fill:none;fill-rule:evenodd;stroke:#000000;stroke-width:1px;stroke-linecap:butt;stroke-linejoin:miter;stroke-opacity:1" />
    <path
       sodipodi:nodetypes="cc"
       inkscape:connector-curvature="0"
       id="path3352"
       d="m 190.60169,424.76949 c 14.53549,-17.63547 39.89953,-11.83837 56.27288,0"
       style="fill:none;fill-rule:evenodd;stroke:#000000;stroke-width:1px;stroke-linecap:butt;stroke-linejoin:miter;stroke-opacity:1" />
    <path
       sodipodi:nodetypes="ccccc"
       inkscape:connector-curvature="0"
       id="path3354"
       d="m 204.2161,413.87796 c 12.10169,0.082 24.20339,-0.71906 36.30508,6.35339 13.28127,-32.27345 12.71247,-54.15935 17.24492,-79.87119 0.0187,-17.26093 -26.85546,-25.2902 -35.39746,-7.26101 -16.76473,23.86516 -18.02777,52.15938 -18.15254,80.77881 z"
       style="fill:#ffffff;fill-rule:evenodd;stroke:#000000;stroke-width:1px;stroke-linecap:butt;stroke-linejoin:miter;stroke-opacity:1" />
    <path
       sodipodi:nodetypes="ccccc"
       inkscape:connector-curvature="0"
       id="path3356"
       d="m 282.27203,419.32372 c 11.05959,-1.38332 21.40621,-3.20832 32.67458,0.90763 6.05085,-12.60284 12.10169,-23.806 18.15254,-71.70254 0.94618,-4.31562 -17.04624,-30.76714 -36.30509,-7.26102 -12.09427,17.31434 -14.4148,46.35715 -14.52203,78.05593 z"
       style="fill:#ffffff;fill-rule:evenodd;stroke:#000000;stroke-width:1px;stroke-linecap:butt;stroke-linejoin:miter;stroke-opacity:1" />
    <path
       sodipodi:nodetypes="cccccc"
       inkscape:connector-curvature="0"
       id="path3358"
       d="m 178.0707,442.88331 c -0.94201,-6.82657 1.12366,-4.6301 2.23286,-5.30305 22.56681,2.54925 45.78444,6.72555 66.98584,5.86126 1.22139,17.49467 4.91347,41.34128 2.79107,50.23939 -12.72741,21.99345 -37.95054,6.07041 -41.30793,0.83732 -24.31828,-22.11054 -21.56189,-34.8038 -30.70184,-51.63492 z"
       style="fill:#2b1100;fill-rule:evenodd;stroke:#000000;stroke-width:1px;stroke-linecap:butt;stroke-linejoin:miter;stroke-opacity:1" />
    <path
       sodipodi:nodetypes="ccc"
       inkscape:connector-curvature="0"
       id="path3360"
       d="m 202.91128,488.65697 c 19.37173,-14.87481 39.45962,-5.04154 47.4483,1.39554 -5.57884,18.82934 -31.94964,20.15208 -47.4483,-1.39554 z"
       style="fill:#ffaaaa;fill-rule:evenodd;stroke:#000000;stroke-width:1px;stroke-linecap:butt;stroke-linejoin:miter;stroke-opacity:1" />
    <path
       sodipodi:nodetypes="cccccc"
       inkscape:connector-curvature="0"
       id="path3362"
       d="m 178.90802,443.99974 c -0.81019,-4.79717 -0.55668,-7.99878 3.07018,-6.14037 29.16347,4.14731 48.93429,5.70054 64.75298,6.14037 l 1.67465,14.5136 c -32.27077,3.2587 -47.51083,-3.34248 -66.42763,-7.81502 z"
       style="fill:#ffffff;fill-rule:evenodd;stroke:#000000;stroke-width:1px;stroke-linecap:butt;stroke-linejoin:miter;stroke-opacity:1" />
    <path
       sodipodi:nodetypes="cccccccccccc"
       inkscape:connector-curvature="0"
       id="path3364"
       d="m 212.77856,326.0357 c -1.12678,-0.004 -1.14457,1.31 -3.3493,0 l -3.54631,-2.75824 c -0.94531,-1.526 -0.0515,-1.94854 0.19702,-2.75824 4.67558,-3.28362 8.03102,-6.56724 14.57927,-9.85086 9.19841,-5.39155 13.28102,-3.10938 18.51962,-2.56122 l 12.41208,4.53139 c 1.02199,0.82606 2.15841,1.56631 2.16719,3.15228 l -0.98509,2.56122 c -0.70607,1.08306 -1.59338,1.07864 -2.56122,0.59105 -8.79643,-1.43676 -15.25279,-6.71791 -30.9317,3.15228 z"
       style="fill:#502d16;fill-rule:evenodd;stroke:#000000;stroke-width:1px;stroke-linecap:butt;stroke-linejoin:miter;stroke-opacity:1" />
    <path
       sodipodi:nodetypes="ccccccccccc"
       inkscape:connector-curvature="0"
       id="path3366"
       d="m 299.86015,324.26255 c -0.83104,0.64281 -1.50887,1.41329 -0.78807,3.34929 l 2.16719,2.36421 c 1.29696,1.62352 2.41049,1.17881 3.94034,0.19701 15.84622,-7.00981 22.7006,-2.84477 29.7496,3.3493 l 4.72841,4.53139 c 1.04178,1.11031 1.9789,1.38326 2.75824,0.39404 l 1.57614,-1.18211 c 0.99318,-1.1821 1.23821,-2.36421 0.39403,-3.54631 -8.12898,-8.23215 -16.29248,-18.32443 -29.65109,-15.56435 z"
       style="fill:#502d16;fill-rule:evenodd;stroke:#000000;stroke-width:1px;stroke-linecap:butt;stroke-linejoin:miter;stroke-opacity:1" />
    <path
       sodipodi:nodetypes="ccccccccc"
       inkscape:connector-curvature="0"
       id="path3368"
       d="m 277.28478,521.83998 c -32.12923,9.57072 -58.91524,-0.89568 -84.29457,-16.63709 -33.06024,10.2045 -58.68909,29.96363 -79.85802,55.45696 l 19.9645,27.72847 -8.87311,15.52795 -35.492451,87.62199 c 32.908661,28.52701 98.773801,37.14611 126.441861,18.85537 l 23.29192,-77.63974 c 18.03967,-36.9713 38.74806,-73.94261 38.81987,-110.91391 z"
       style="fill:#008066;fill-rule:evenodd;stroke:#000000;stroke-width:1px;stroke-linecap:butt;stroke-linejoin:miter;stroke-opacity:1" />
    <path
       sodipodi:nodetypes="cc"
       inkscape:connector-curvature="0"
       id="path3370"
       d="m 133.33372,587.5807 c 17.96245,-28.97968 34.72557,-58.95879 62.52012,-79.74505"
       style="fill:none;fill-rule:evenodd;stroke:#000000;stroke-width:1px;stroke-linecap:butt;stroke-linejoin:miter;stroke-opacity:1" />
    <path
       sodipodi:nodetypes="cccc"
       inkscape:connector-curvature="0"
       id="path3372"
       d="m 229.66574,543.56143 c -10.1262,18.51709 -28.09627,35.4654 -46.57111,52.31276 12.12283,26.42617 30.83631,37.78801 54.8646,37.0017 -11.19587,-21.1677 -27.75154,-35.78454 -54.22664,-38.27762"
       style="fill:none;fill-rule:evenodd;stroke:#000000;stroke-width:1px;stroke-linecap:butt;stroke-linejoin:miter;stroke-opacity:1" />
    <path
       inkscape:connector-curvature="0"
       id="path3376"
       d="m 119.93655,570.03679 -20.414728,42.10539 24.561478,-7.97451 8.93144,-15.94901 z"
       style="fill:#fbf1d5;fill-rule:evenodd;stroke:#000000;stroke-width:1px;stroke-linecap:butt;stroke-linejoin:miter;stroke-opacity:1;fill-opacity:1" />
    <path
       sodipodi:nodetypes="cccccc"
       inkscape:connector-curvature="0"
       id="path3380"
       d="m 95.375079,688.69742 c 10.654311,15.7096 60.604941,28.51431 78.788111,-14.03512 5.5823,-7.01768 9.25844,-31.14125 -7.33655,-53.90766 -5.79183,-8.03396 -17.34902,-23.8205 -51.67479,-14.03513 -31.478879,9.32132 -30.781681,24.66266 -33.492919,28.70822 -4.221032,9.43407 -8.280943,37.1715 13.716148,53.26969 z"
       style="fill:#e6e6e6;fill-rule:evenodd;stroke:#000000;stroke-width:1px;stroke-linecap:butt;stroke-linejoin:miter;stroke-opacity:1" />
    <path
       sodipodi:nodetypes="ccccccccccc"
       inkscape:connector-curvature="0"
       id="path3382"
       d="m 92.746114,695.66009 c 0.989217,24.84952 8.953106,48.5366 18.134716,72.02073 3.12051,4.1726 3.7749,9.82487 0,18.13471 -10.1292,17.61495 -14.23314,14.99544 -18.652851,26.94301 17.418451,8.62615 49.062511,24.9048 85.492231,10.36269 l 34.19689,4.14508 6.21762,-23.31606 c 1.07439,-10.41988 -0.43843,-16.95894 -2.07254,-23.31607 -4.22892,-3.938 -6.28391,-15.48474 -7.77202,-29.01554 l 1.03626,-37.3057 c -51.5407,15.13336 -97.87277,-4.5547 -116.580306,-18.65285 z"
       style="fill:#004455;fill-rule:evenodd;stroke:#000000;stroke-width:1px;stroke-linecap:butt;stroke-linejoin:miter;stroke-opacity:1" />
    <path
       sodipodi:nodetypes="cccc"
       inkscape:connector-curvature="0"
       id="path3384"
       d="m 177.72021,718.97615 7.25388,39.89638 c -0.76291,8.29015 -0.49715,16.58031 -5.18134,24.87046 -6.4506,17.02349 -4.1537,28.21531 -2.59068,39.89638"
       style="fill:none;fill-rule:evenodd;stroke:#000000;stroke-width:1px;stroke-linecap:butt;stroke-linejoin:miter;stroke-opacity:1" />
    <path
       sodipodi:nodetypes="ccccc"
       inkscape:connector-curvature="0"
       id="path3386"
       d="m 116.06218,708.09532 -3.10881,22.2798 c -2.56278,8.02843 -8.26973,6.62431 -13.471505,6.73575 -3.944273,-17.39705 -5.900131,-31.48007 -5.699482,-41.96891 9.208457,7.88151 15.774287,10.47775 22.279797,12.95336 z"
       style="fill:#006680;fill-rule:evenodd;stroke:#000000;stroke-width:1px;stroke-linecap:butt;stroke-linejoin:miter;stroke-opacity:1" />
    <path
       sodipodi:nodetypes="cccc"
       inkscape:connector-curvature="0"
       id="path3388"
       d="m 143.52332,764.05387 c 15.19531,3.21954 30.30906,6.33034 41.45077,4.14508 4.66679,-0.68369 8.63199,-2.77056 11.9171,-6.21762 2.18423,-2.55281 4.73299,-4.78007 9.32643,-5.18134"
       style="fill:none;fill-rule:evenodd;stroke:#000000;stroke-width:1px;stroke-linecap:butt;stroke-linejoin:miter;stroke-opacity:1" />
    <path
       sodipodi:nodetypes="ccc"
       inkscape:connector-curvature="0"
       id="path3390"
       d="m 144.04145,792.03315 c 4.53246,-4.7068 9.13118,-9.39151 21.76166,-11.39897 l 17.61658,-7.25388"
       style="fill:none;fill-rule:evenodd;stroke:#000000;stroke-width:1px;stroke-linecap:butt;stroke-linejoin:miter;stroke-opacity:1" />
    <path
       inkscape:connector-curvature="0"
       id="path3392"
       d="m 183.41969,775.45284 24.35233,0"
       style="fill:none;fill-rule:evenodd;stroke:#000000;stroke-width:1px;stroke-linecap:butt;stroke-linejoin:miter;stroke-opacity:1" />
    <path
       sodipodi:nodetypes="cccccc"
       inkscape:connector-curvature="0"
       id="path3394"
       d="m 95.336788,813.79481 -4.663213,7.25388 2.072539,5.18135 c 3.838133,15.21039 33.282726,20.57214 53.367876,29.53368 3.79168,-14.4635 11.88094,-21.76435 19.68912,-29.53368 -23.48877,7.53369 -46.97755,0.6811 -70.466322,-12.43523 z"
       style="fill:#006680;fill-rule:evenodd;stroke:#000000;stroke-width:1px;stroke-linecap:butt;stroke-linejoin:miter;stroke-opacity:1" />
    <path
       sodipodi:nodetypes="cccc"
       inkscape:connector-curvature="0"
       id="path3396"
       d="m 203.10881,832.44766 8.80828,-5.44042 c -5.48592,1.27025 -14.51021,-1.73078 -21.24351,-2.3316 5.17735,2.38422 10.60336,4.71871 12.43523,7.77202 z"
       style="fill:#006680;fill-rule:evenodd;stroke:#000000;stroke-width:1px;stroke-linecap:butt;stroke-linejoin:miter;stroke-opacity:1" />
    <path
       sodipodi:nodetypes="ccccccccccc"
       inkscape:connector-curvature="0"
       id="path3398"
       d="m 90.673575,822.08496 -4.145078,5.18135 c -1.161593,2.5607 -0.03984,4.34961 3.367876,7.51295 23.120317,17.61155 26.664107,16.03793 36.787567,21.76166 11.61125,3.37456 20.32328,6.97825 40.93264,9.06736 31.19141,-1.74016 26.03163,-8.17504 30.31088,-11.9171 l 3.62694,-7.25389 -12.95336,9.84456 c -6.37342,2.79554 -14.04304,4.78096 -25.90674,4.14508 -6.96397,-0.35529 -19.34351,-5.04303 -33.16062,-10.88083 C 98.183103,838.34892 92.006308,830.71399 90.673575,822.08496 Z"
       style="fill:#00222b;fill-rule:evenodd;stroke:#000000;stroke-width:1px;stroke-linecap:butt;stroke-linejoin:miter;stroke-opacity:1" />
    <path
       sodipodi:nodetypes="cccccc"
       inkscape:connector-curvature="0"
       id="path3400"
       d="m 196.37306,858.09532 c 8.26878,1.31476 19.18117,7.83381 44.55958,-0.7772 l 4.66321,-12.95337 c -4.37967,4.53484 -7.65504,9.51139 -18.65284,11.39897 -13.77163,1.90904 -19.96345,-1.08959 -28.49741,-3.10881 -1.47735,3.07103 -3.47017,4.38229 -2.07254,5.44041 z"
       style="fill:#00222b;fill-rule:evenodd;stroke:#000000;stroke-width:1px;stroke-linecap:butt;stroke-linejoin:miter;stroke-opacity:1" />
    <path
       sodipodi:nodetypes="cccccc"
       inkscape:connector-curvature="0"
       id="path3402"
       d="m 145.85492,855.76372 c 2.63568,-7.57953 5.52038,-15.30356 19.17099,-29.27461 l 12.95336,-3.10881 c 14.35736,-0.31907 16.07407,3.25129 22.2798,5.44041 3.82141,5.19427 4.38189,11.04072 1.29533,17.61658 -19.0386,18.56988 -37.43758,16.19289 -55.69948,9.32643 z"
       style="fill:#dbe3e2;fill-rule:evenodd;stroke:#000000;stroke-width:1px;stroke-linecap:butt;stroke-linejoin:miter;stroke-opacity:1" />
    <path
       sodipodi:nodetypes="ccccc"
       inkscape:connector-curvature="0"
       id="path3404"
       d="m 202.33161,832.44766 c 6.77303,-3.28257 12.23009,-7.73389 21.24352,-7.25389 21.24122,2.70002 18.98243,11.66721 22.02073,18.91192 -14.93688,18.23863 -40.23045,11.61422 -47.15026,7.77202 4.51431,-6.18405 6.93528,-12.5584 3.88601,-19.43005 z"
       style="fill:#dbe3e2;fill-rule:evenodd;stroke:#000000;stroke-width:1px;stroke-linecap:butt;stroke-linejoin:miter;stroke-opacity:1" />
    <path
       sodipodi:nodetypes="ccccccccccccccccccccc"
       inkscape:connector-curvature="0"
       id="path3374"
       d="m 207.63662,602.62374 c -8.48419,9.78206 -17.19157,18.92616 -31.57904,28.70822 -4.06577,0.67317 -7.89276,3.01773 -12.75921,-1.91388 l -10.20736,-14.67309 c -2.83633,-2.20404 -5.82547,-5.47778 -7.01757,3.82776 -0.10396,4.67838 1.62627,9.35675 8.29349,14.03513 -6.14398,8.292 -16.11908,7.96399 -25.51842,8.93144 -4.32306,3.41412 -1.612,5.65589 -1.27592,8.29349 6.59226,2.10848 13.18451,2.77243 19.77677,0.63796 l -17.22493,10.20737 c -1.44933,2.12653 -3.81522,4.25307 1.27592,6.3796 8.23952,2.30901 14.41751,-4.6589 21.05269,-9.56941 -2.08957,6.80491 -3.37661,13.60983 -7.01756,20.41474 -1.43078,6.47479 4.3338,6.43784 7.65553,4.46572 l 12.7592,-26.15638 c 1.39174,4.54358 2.21891,10.78084 1.91388,20.41474 2.36397,1.68163 3.46742,1.98176 6.37961,-2.55185 3.39928,-6.27388 3.89083,-11.80705 3.82776,-17.86289 0.24549,-2.55184 1.28255,-5.10368 5.74164,-7.65552 13.44222,-10.32992 27.45365,-19.52141 37.63967,-36.36374 -4.17374,-2.94086 -3.51089,-2.85885 -13.71615,-9.56941 z"
       style="fill:#fcf2d6;fill-rule:evenodd;stroke:#000000;stroke-width:1px;stroke-linecap:butt;stroke-linejoin:miter;stroke-opacity:1;fill-opacity:1" />
    <path
       sodipodi:nodetypes="cccccccccccccccccccc"
       inkscape:connector-curvature="0"
       id="path3378"
       d="m 78.768625,681.73083 c -4.947422,-2.76173 -9.916997,-10.9727 -10.526347,-19.45779 l 0.31898,-14.67309 2.870822,-8.29349 -1.275921,-5.74164 c -0.879088,-6.45632 2.534056,-9.33593 6.698584,-5.10368 l 4.146743,8.61246 -3.189802,12.75921 13.078188,-14.35411 c 6.485532,-3.4817 7.25754,0.1785 7.017564,5.10368 l -11.802267,14.35411 c 4.405289,-1.73144 9.215467,-3.26044 15.311041,-4.14674 5.36972,1.67461 7.05236,3.96373 2.23286,7.33654 -4.784696,3.25523 -9.569398,5.88423 -14.354099,8.29349 l 17.224929,2.55184 c 8.63143,2.55184 4.45663,5.10369 1.27592,7.65553 l -19.77677,1.5949 13.39716,5.10368 c 1.78818,1.10517 6.28971,1.30588 0.95694,4.7847 -6.159326,0.95603 -10.856269,3.37137 -23.604525,-6.3796 z"
       style="fill:#fcf2d6;fill-rule:evenodd;stroke:#000000;stroke-width:1px;stroke-linecap:butt;stroke-linejoin:miter;stroke-opacity:1;fill-opacity:1" />
    <path
       sodipodi:nodetypes="ccccc"
       inkscape:connector-curvature="0"
       id="path4224"
       d="m 220.20073,404.70645 c 7.63819,9.67886 16.41431,6.84058 25.33283,2.43585 l 2.92302,-12.66641 c -3.44475,-12.98598 -14.04513,-13.92893 -21.43547,-11.20491 0.3447,-0.43008 -13.53783,3.51784 -6.82038,21.43547 z"
       style="fill:#552200;fill-rule:evenodd;stroke:#000000;stroke-width:1px;stroke-linecap:butt;stroke-linejoin:miter;stroke-opacity:1" />
    <path
       sodipodi:nodetypes="ccccc"
       inkscape:connector-curvature="0"
       id="path4226"
       d="m 294.7377,386.68117 c -5.40563,4.836 -6.35535,10.23936 -3.89736,16.07661 4.66846,6.96285 10.98211,11.4579 23.38415,6.82037 6.59011,-4.435 7.30621,-12.32076 5.84604,-16.0766 -2.48532,-6.4599 -13.78321,-15.33897 -25.33283,-6.82038 z"
       style="fill:#552200;fill-rule:evenodd;stroke:#000000;stroke-width:1px;stroke-linecap:butt;stroke-linejoin:miter;stroke-opacity:1" />
    <ellipse
       ry="2.9230185"
       rx="3.1666033"
       cy="392.04004"
       cx="231.16205"
       id="path4228"
       style="opacity:0.569;fill:#ffffff;fill-opacity:1;stroke:#ffffff;stroke-width:0.5;stroke-linejoin:miter;stroke-miterlimit:4;stroke-dasharray:none;stroke-dashoffset:0;stroke-opacity:1" />
    <ellipse
       ry="3.1666033"
       rx="2.6794336"
       cy="395.20663"
       cx="303.26318"
       id="path4230"
       style="opacity:0.569;fill:#ffffff;fill-opacity:1;stroke:#ffffff;stroke-width:0.5;stroke-linejoin:miter;stroke-miterlimit:4;stroke-dasharray:none;stroke-dashoffset:0;stroke-opacity:1" />
  </g>
</svg>
