<?xml version="1.0" encoding="UTF-8" standalone="no"?>
<!-- Created with Inkscape (http://www.inkscape.org/) -->

<svg
   xmlns:dc="http://purl.org/dc/elements/1.1/"
   xmlns:cc="http://creativecommons.org/ns#"
   xmlns:rdf="http://www.w3.org/1999/02/22-rdf-syntax-ns#"
   xmlns:svg="http://www.w3.org/2000/svg"
   xmlns="http://www.w3.org/2000/svg"
   xmlns:sodipodi="http://sodipodi.sourceforge.net/DTD/sodipodi-0.dtd"
   xmlns:inkscape="http://www.inkscape.org/namespaces/inkscape"
   id="svg2"
   version="1.1"
   inkscape:version="0.91 r13725"
   width="302.39999"
   height="829.79999"
   viewBox="0 0 302.39999 829.79999"
   sodipodi:docname="policial.svg"
   inkscape:export-filename="C:\Users\Lislaine-PC\Pictures\Policial.png"
   inkscape:export-xdpi="300.74933"
   inkscape:export-ydpi="300.74933">
  <metadata
     id="metadata8">
    <rdf:RDF>
      <cc:Work
         rdf:about="">
        <dc:format>image/svg+xml</dc:format>
        <dc:type
           rdf:resource="http://purl.org/dc/dcmitype/StillImage" />
        <dc:title />
      </cc:Work>
    </rdf:RDF>
  </metadata>
  <defs
     id="defs6" />
  <sodipodi:namedview
     pagecolor="#ffffff"
     bordercolor="#666666"
     borderopacity="1"
     objecttolerance="10"
     gridtolerance="10"
     guidetolerance="10"
     inkscape:pageopacity="0"
     inkscape:pageshadow="2"
     inkscape:window-width="1024"
     inkscape:window-height="537"
     id="namedview4"
     showgrid="false"
     inkscape:zoom="0.43527528"
     inkscape:cx="-635.02487"
     inkscape:cy="353.55544"
     inkscape:window-x="-8"
     inkscape:window-y="-8"
     inkscape:window-maximized="1"
     inkscape:current-layer="svg2" />
  <g
     id="g3462"
     inkscape:export-xdpi="140"
     inkscape:export-ydpi="140">
    <path
       sodipodi:nodetypes="cccccccccccccc"
       inkscape:connector-curvature="0"
       id="path4138"
       d="m 4.9725186,252.98783 c -4.84676559,4.93919 -11.2038118,8.61981 -2.4862593,24.86259 23.8375567,13.69624 37.3833997,6.80905 52.2114457,2.48626 5.443317,20.71317 15.512314,34.76598 27.348852,39.78015 33.002753,18.91395 58.131033,29.95343 77.074043,34.80763 29.80838,2.01793 49.62007,-14.91586 79.56029,-23.61947 28.65161,-19.96907 31.26876,-35.59907 32.32138,-50.96831 -15.99053,-85.67985 -1.87355,-81.03718 -1.24313,-116.85419 L 87.019076,141.10616 c -10.640515,4.87882 -12.019342,12.84486 -16.160685,19.89007 l -9.945038,84.53282 -4.972518,11.18817 -9.945038,-2.48626 C 33.330294,240.70058 19.972937,236.1643 4.9725186,252.98783 Z"
       style="fill:#fcf2d6;fill-rule:evenodd;stroke:#000000;stroke-width:1px;stroke-linecap:butt;stroke-linejoin:miter;stroke-opacity:1;fill-opacity:1" />
    <path
       sodipodi:nodetypes="cccccc"
       inkscape:connector-curvature="0"
       id="path4140"
       d="m 132.73284,279.53008 c 25.09892,0.322 50.6265,1.35843 82.62839,13.18538 l 29.88686,22.85466 c -30.18851,15.90838 -51.51644,6.81685 -71.20106,-12.30635 -18.24213,10.03463 -49.63473,15.41428 -79.112286,-10.54831 z"
       style="fill:#2b1100;fill-rule:evenodd;stroke:#000000;stroke-width:1px;stroke-linecap:butt;stroke-linejoin:miter;stroke-opacity:1" />
    <path
       sodipodi:nodetypes="cc"
       inkscape:connector-curvature="0"
       id="path4142"
       d="M 4.6038401,267.79197 C 18.041884,254.79377 33.905348,255.51504 44.102087,261.90083"
       style="fill:none;fill-rule:evenodd;stroke:#000000;stroke-width:1px;stroke-linecap:butt;stroke-linejoin:miter;stroke-opacity:1" />
    <path
       sodipodi:nodetypes="cc"
       inkscape:connector-curvature="0"
       id="path4144"
       d="m 35.578443,258.176 c -4.06918,16.74116 -19.749891,11.09347 -22.393062,2.89455"
       style="fill:none;fill-rule:evenodd;stroke:#000000;stroke-width:1px;stroke-linecap:butt;stroke-linejoin:miter;stroke-opacity:1" />
    <path
       sodipodi:nodetypes="cccccc"
       inkscape:connector-curvature="0"
       id="path4146"
       d="m 35.161016,245.24809 c 2.862402,-37.15574 6.385641,-74.14628 18.459534,-108.99915 l 32.52394,5.27415 c -21.505772,2.98286 -18.681582,65.05278 -25.491737,103.725 -0.703709,5.26214 -0.283271,11.19877 -12.306355,9.66928 z"
       style="fill:#2b1100;fill-rule:evenodd;stroke:#000000;stroke-width:1px;stroke-linecap:butt;stroke-linejoin:miter;stroke-opacity:1" />
    <path
       sodipodi:nodetypes="cc"
       inkscape:connector-curvature="0"
       id="path4148"
       d="m 109.64912,246.02806 c 18.91961,-6.0697 37.65185,-7.78556 50.8772,4.82456"
       style="fill:none;fill-rule:evenodd;stroke:#000000;stroke-width:1px;stroke-linecap:butt;stroke-linejoin:miter;stroke-opacity:1" />
    <path
       sodipodi:nodetypes="cc"
       inkscape:connector-curvature="0"
       id="path4150"
       d="m 187.7193,250.41402 c 20.18343,-8.94692 37.41889,-7.28112 51.75438,4.82456"
       style="fill:none;fill-rule:evenodd;stroke:#000000;stroke-width:1px;stroke-linecap:butt;stroke-linejoin:miter;stroke-opacity:1" />
    <path
       sodipodi:nodetypes="ccccc"
       inkscape:connector-curvature="0"
       id="path4152"
       d="m 114.91228,244.71227 c 4.14687,-22.27414 0.57786,-46.65261 16.22807,-65.78948 14.49634,-14.78096 28.05088,-1.14059 28.50877,3.07018 4.73177,17.90999 -1.56386,40.72104 -7.01754,63.15789 -10.81457,-4.83561 -23.39596,-4.9597 -37.7193,-0.43859 z"
       style="fill:#ffffff;fill-rule:evenodd;stroke:#000000;stroke-width:1px;stroke-linecap:butt;stroke-linejoin:miter;stroke-opacity:1" />
    <path
       sodipodi:nodetypes="ccccc"
       inkscape:connector-curvature="0"
       id="path4154"
       d="m 193.85965,246.90525 c 4.18338,-22.42731 5.03942,-53.50567 14.47368,-62.2807 13.57161,-13.76978 26.92774,-4.41907 27.63158,3.94737 6.06423,19.23466 -2.11537,40.2498 -4.38596,60.52631 -18.64447,-8.53704 -26.67199,-3.42371 -37.7193,-2.19298 z"
       style="fill:#ffffff;fill-rule:evenodd;stroke:#000000;stroke-width:1px;stroke-linecap:butt;stroke-linejoin:miter;stroke-opacity:1" />
    <path
       sodipodi:nodetypes="cccc"
       inkscape:connector-curvature="0"
       id="path4156"
       d="m 175,272.34385 22.36842,-16.22807 c 14.57154,-8.04152 19.35891,-1.40679 22.36842,7.89473 1.33554,14.20894 -12.35529,17.48961 -23.24561,22.80702"
       style="fill:none;fill-rule:evenodd;stroke:#000000;stroke-width:1px;stroke-linecap:butt;stroke-linejoin:miter;stroke-opacity:1" />
    <path
       sodipodi:nodetypes="cc"
       inkscape:connector-curvature="0"
       id="path4158"
       d="m 146.05263,338.57192 c 9.87589,6.20302 17.69448,5.20551 25.4386,3.94737"
       style="fill:none;fill-rule:evenodd;stroke:#000000;stroke-width:1px;stroke-linecap:butt;stroke-linejoin:miter;stroke-opacity:1" />
    <path
       sodipodi:nodetypes="ccccc"
       inkscape:connector-curvature="0"
       id="path4160"
       d="m 110.96491,160.50174 5.70176,8.33334 c 19.67343,-3.03789 39.19771,-6.57293 62.2807,1.75438 l -5.70176,-7.89474 c -15.72872,-8.27826 -34.90202,-11.38965 -62.2807,-2.19298 z"
       style="fill:#2b1100;fill-rule:evenodd;stroke:#000000;stroke-width:1px;stroke-linecap:butt;stroke-linejoin:miter;stroke-opacity:1" />
    <path
       sodipodi:nodetypes="ccccc"
       inkscape:connector-curvature="0"
       id="path4162"
       d="m 193.42105,177.16841 11.40351,-11.40351 c 32.59152,-5.64338 46.85569,1.46271 52.63158,14.47368 l -5.70175,4.38597 c -26.61859,-22.58053 -43.44712,-7.82057 -58.33334,-7.45614 z"
       style="fill:#2b1100;fill-rule:evenodd;stroke:#000000;stroke-width:1px;stroke-linecap:butt;stroke-linejoin:miter;stroke-opacity:1" />
    <path
       sodipodi:nodetypes="ccccc"
       inkscape:connector-curvature="0"
       id="path4164"
       d="m 53.947368,135.50174 c -4.51233,-3.12469 -0.276263,-4.4997 0.438597,-6.57895 65.531195,-6.60902 163.342595,6.47808 236.403505,19.73685 0.10938,0.33439 11.67913,1.96048 1.31579,14.91228 -77.80693,-6.19865 -156.84929,-14.86817 -238.157892,-28.07018 z"
       style="fill:#f4eed7;fill-rule:evenodd;stroke:#000000;stroke-width:1px;stroke-linecap:butt;stroke-linejoin:miter;stroke-opacity:1" />
    <path
       sodipodi:nodetypes="cccccccccc"
       inkscape:connector-curvature="0"
       id="path4166"
       d="m 52.631579,130.23858 c -8.597363,0.68248 -17.59131,2.8552 -22.807018,-6.57894 C 17.132398,88.152558 53.159024,74.96876 53.947368,72.782444 68.58913,66.02334 84.604597,59.754845 115.35088,58.747356 c 21.9819,1.374378 39.12897,-2.690435 51.75438,-11.842105 21.05263,-11.579477 42.10527,-27.471497 63.1579,-34.649123 33.56667,-14.7903702 48.02946,5.460169 53.50877,11.842105 18.01083,21.520565 9.0391,46.039191 7.45614,69.736843 L 279.82456,146.02806 C 201.6677,133.48731 124.68662,124.47388 52.631579,130.23858 Z"
       style="fill:#0b0b28;fill-rule:evenodd;stroke:#000000;stroke-width:1px;stroke-linecap:butt;stroke-linejoin:miter;stroke-opacity:1" />
    <path
       sodipodi:nodetypes="ccccccc"
       inkscape:connector-curvature="0"
       id="path4168"
       d="m 263.15789,39.449111 c -7.28471,11.177637 -15.66305,20.393374 -25.87719,26.315789 4.4572,11.669041 1.70084,24.032076 -5.70175,36.84211 8.3289,-1.01157 12.01521,10.3571 17.10526,17.98245 10.31766,-13.29414 16.67194,-16.67985 22.36842,-18.42105 -0.18298,-11.079716 -0.35317,-22.163087 7.45614,-35.526317 -10.78855,-7.173796 -10.80473,-17.938384 -15.35088,-27.192982 z"
       style="fill:#ffcc00;fill-rule:evenodd;stroke:#000000;stroke-width:1px;stroke-linecap:butt;stroke-linejoin:miter;stroke-opacity:1" />
    <path
       sodipodi:nodetypes="ccccc"
       inkscape:connector-curvature="0"
       id="path4170"
       d="m 253.07018,64.449111 c 5.52743,-6.674621 13.9049,-8.865911 14.91228,3.070175 -0.29954,7.110978 -0.57397,14.201867 -6.57895,25.877193 -9.2614,10.532751 -12.6569,3.467787 -16.22807,-3.070175 0.67048,-11.894229 3.72639,-19.812752 7.89474,-25.877193 z"
       style="fill:none;fill-rule:evenodd;stroke:#000000;stroke-width:1px;stroke-linecap:butt;stroke-linejoin:miter;stroke-opacity:1" />
    <path
       sodipodi:nodetypes="ccccc"
       inkscape:connector-curvature="0"
       id="path4172"
       d="m 130.70175,221.46665 c 8.19444,-9.59053 15.3231,-6.39179 22.36843,-2.19298 4.09357,3.50877 4.09357,8.18714 0,14.03509 -12.90347,8.97681 -16.81165,3.27233 -19.73685,2.19298 -5.51732,-3.87348 -4.22149,-10.9179 -2.63158,-14.03509 z"
       style="fill:#2b1100;fill-rule:evenodd;stroke:#000000;stroke-width:1px;stroke-linecap:butt;stroke-linejoin:miter;stroke-opacity:1" />
    <path
       sodipodi:nodetypes="ccccc"
       inkscape:connector-curvature="0"
       id="path4174"
       d="m 207.89474,227.16841 c 9.46508,-8.32815 18.88895,-5.41692 21.92982,0.87719 0.36798,2.05608 1.68225,5.22211 -2.19298,8.33334 -6.50704,6.91866 -13.44037,5.47246 -19.29825,0.43859 -2.84938,-6.82061 -0.77691,-7.07877 -0.43859,-9.64912 z"
       style="fill:#2b1100;fill-rule:evenodd;stroke:#000000;stroke-width:1px;stroke-linecap:butt;stroke-linejoin:miter;stroke-opacity:1" />
    <path
       sodipodi:nodetypes="ccccc"
       inkscape:connector-curvature="0"
       id="path4186"
       d="m 192.12218,362.8042 -1.73604,42.53307 c -24.78685,6.14938 -49.57369,2.80356 -74.36054,-0.86802 l 0.28934,-43.69044 c 27.55937,-5.62652 54.66024,-8.53076 75.80724,2.02539 z"
       style="fill:#00112b;fill-rule:evenodd;stroke:#000000;stroke-width:1px;stroke-linecap:butt;stroke-linejoin:miter;stroke-opacity:1" />
    <path
       sodipodi:nodetypes="ccccccc"
       inkscape:connector-curvature="0"
       id="path4188"
       d="m 99.065421,327.93083 c -3.395358,16.0466 -23.962905,22.72655 -40.186916,31.7757 -14.879649,3.68086 -19.01776,11.96524 -25.700935,19.15888 -17.619533,21.97371 -13.292403,35.63372 -21.962617,51.86916 3.528921,3.62132 14.781958,6.96176 52.336449,9.34579 l 35.514019,-90.18691 z"
       style="fill:#00112b;fill-rule:evenodd;stroke:#000000;stroke-width:1px;stroke-linecap:butt;stroke-linejoin:miter;stroke-opacity:1" />
    <path
       sodipodi:nodetypes="ccccc"
       inkscape:connector-curvature="0"
       id="path4190"
       d="m 211.68224,341.94952 c 1.21627,33.61865 -7.29099,72.54105 6.07477,99.53271 40.8281,1.5625 43.69228,-3.77067 43.45794,-5.14019 l -2.33645,-26.16822 c -7.98827,-25.32271 -28.45605,-46.48558 -47.19626,-68.2243 z"
       style="fill:#00112b;fill-rule:evenodd;stroke:#000000;stroke-width:1px;stroke-linecap:butt;stroke-linejoin:miter;stroke-opacity:1" />
    <path
       sodipodi:nodetypes="ccccc"
       inkscape:connector-curvature="0"
       id="path4192"
       d="m 16.35514,413.91214 c -6.6535338,5.60748 -5.755611,11.21495 -5.140187,16.82243 l 16.82243,6.07476 c 5.771504,-2.4102 11.444714,-4.86954 7.476636,-12.14953 -8.829075,-2.0673 -17.363746,-4.31722 -19.158879,-10.74766 z"
       style="fill:#00112b;fill-rule:evenodd;stroke:#000000;stroke-width:1px;stroke-linecap:butt;stroke-linejoin:miter;stroke-opacity:1" />
    <path
       sodipodi:nodetypes="ccccc"
       inkscape:connector-curvature="0"
       id="path4194"
       d="m 245.79439,429.79999 c -10.5844,5.42203 -3.56901,7.64409 -1.40187,10.74766 8.0678,0.27964 16.39661,0.82028 19.62617,-3.73832 4.27298,-4.04984 1.66459,-8.09969 -1.40187,-12.14953 -3.69099,6.43857 -11.00529,3.94371 -16.82243,5.14019 z"
       style="fill:#00112b;fill-rule:evenodd;stroke:#000000;stroke-width:1px;stroke-linecap:butt;stroke-linejoin:miter;stroke-opacity:1" />
    <path
       sodipodi:nodetypes="cccccccccccccc"
       inkscape:connector-curvature="0"
       id="path4200"
       d="m 73.364486,554.09905 c 78.116214,14.64028 88.170334,1.73161 117.757014,-3.27102 27.23208,-12.45161 30.07484,-32.63236 34.11214,-48.13085 3.1817,-22.66288 7.1362,-45.37122 -10.28037,-66.82243 -7.93272,-20.74018 -4.36714,-45.79222 -2.80374,-70.09345 l -20.56074,3.73831 -0.46729,35.04673 c -19.27475,6.83915 -43.96995,7.17376 -75.70094,-0.93458 l 1.86916,-31.7757 -19.626169,-19.15888 c -11.370716,31.93039 -22.741433,57.83186 -34.112149,86.4486 2.948588,16.66979 4.728886,33.67337 -0.93458,52.80374 22.866578,7.02146 19.912389,21.25439 16.355141,23.83178 11.044095,11.59865 10.744078,24.22859 -5.607477,38.31775 z"
       style="fill:#0b2228;fill-rule:evenodd;stroke:#000000;stroke-width:1px;stroke-linecap:butt;stroke-linejoin:miter;stroke-opacity:1" />
    <path
       sodipodi:nodetypes="cc"
       inkscape:connector-curvature="0"
       id="path4210"
       d="m 110.28037,507.37008 c 19.46625,8.66524 39.91931,15.40882 71.02804,1.40187"
       style="fill:none;fill-rule:evenodd;stroke:#000000;stroke-width:1px;stroke-linecap:butt;stroke-linejoin:miter;stroke-opacity:1" />
    <path
       sodipodi:nodetypes="cc"
       inkscape:connector-curvature="0"
       id="path4212"
       d="m 108.8785,526.06167 c 28.30681,9.978 52.36897,10.71765 70.09346,-2.33645"
       style="fill:none;fill-rule:evenodd;stroke:#000000;stroke-width:1px;stroke-linecap:butt;stroke-linejoin:miter;stroke-opacity:1" />
    <path
       sodipodi:nodetypes="cc"
       inkscape:connector-curvature="0"
       id="path4214"
       d="m 106.54206,544.28597 c 18.48737,7.19955 38.69059,11.86617 70.09345,0"
       style="fill:none;fill-rule:evenodd;stroke:#000000;stroke-width:1px;stroke-linecap:butt;stroke-linejoin:miter;stroke-opacity:1" />
    <path
       sodipodi:nodetypes="ccccccccccccccccccc"
       inkscape:connector-curvature="0"
       id="path4216"
       d="m 17.28972,434.47288 c 2.937434,19.75034 0.472749,31.76748 8.878504,59.3458 1.309076,2.97358 2.955267,5.18865 1.869159,13.5514 -3.439303,9.68347 -9.802078,18.19755 4.672897,35.04673 2.959502,1.70285 5.919003,6.61811 8.878505,-4.6729 l 7.943925,6.54206 c 2.542312,0.77335 4.771358,0.60691 6.074767,-2.33645 l -1.40187,-6.07477 5.140187,4.20561 c 3.277634,1.51947 6.562007,3.05652 7.009346,-2.80374 l -0.46729,-5.14018 3.271029,1.86916 c 5.42217,4.23016 4.59163,-0.47213 6.074766,-1.86916 l -8.411215,-18.69159 7.476635,4.67289 c 8.169988,-0.60526 5.875861,-5.96693 7.943926,-9.34579 -2.457096,-8.43283 -9.06951,-14.30853 -19.626169,-17.75701 3.352579,-13.69819 5.713907,-28.31684 0.46729,-50 -14.951275,-2.49421 -29.655648,-5.23532 -45.794392,-6.54206 z"
       style="fill:#fcf2d6;fill-rule:evenodd;stroke:#000000;stroke-width:1px;stroke-linecap:butt;stroke-linejoin:miter;stroke-opacity:1;fill-opacity:1" />
    <path
       sodipodi:nodetypes="cccccccccccc"
       inkscape:connector-curvature="0"
       id="path4218"
       d="m 27.102804,534.70653 c -1.054678,3.1461 0.962946,25.8554 22.196261,26.16822 14.88159,0.70852 19.024605,-3.2811 24.299066,-6.7757 19.22575,-17.00214 13.322355,-30.85349 5.841121,-38.08411 -2.604043,3.88369 -7.872041,0.8411 -13.551401,-3.27103 l 9.345794,18.69159 c -0.788899,2.81876 -1.761125,5.3442 -5.607477,3.27103 0.826622,9.9687 -6.48497,10.31952 -12.149532,12.61682 -9.635927,2.71923 -9.994065,-3.06619 -12.616823,-6.7757 l -2.570093,-2.57009 c -1.791277,3.10009 -3.582555,6.11605 -5.373832,6.7757 -4.582442,-1.60036 -7.011572,-6.0718 -9.813084,-10.04673 z"
       style="fill:#552200;fill-rule:evenodd;stroke:#000000;stroke-width:1px;stroke-linecap:butt;stroke-linejoin:miter;stroke-opacity:1" />
    <path
       inkscape:connector-curvature="0"
       id="path4220"
       d="M 41.82243,537.27662 35.514019,521.15513"
       style="fill:none;fill-rule:evenodd;stroke:#000000;stroke-width:1px;stroke-linecap:butt;stroke-linejoin:miter;stroke-opacity:1" />
    <path
       inkscape:connector-curvature="0"
       id="path4222"
       d="M 53.971963,534.70653 48.130841,519.75326"
       style="fill:none;fill-rule:evenodd;stroke:#000000;stroke-width:1px;stroke-linecap:butt;stroke-linejoin:miter;stroke-opacity:1" />
    <path
       inkscape:connector-curvature="0"
       id="path4224"
       d="M 65.887851,532.13644 57.71028,516.24859"
       style="fill:none;fill-rule:evenodd;stroke:#000000;stroke-width:1px;stroke-linecap:butt;stroke-linejoin:miter;stroke-opacity:1" />
    <path
       sodipodi:nodetypes="ccccccc"
       inkscape:connector-curvature="0"
       id="path4226"
       d="m 57.242991,560.87475 c 9.246008,-0.71932 13.053293,-3.85585 16.82243,-7.00934 42.373039,8.73719 84.902119,13.41719 128.504669,-9.81309 1.94095,5.10633 2.71954,11.18128 0.93458,19.39253 -2.9867,7.82653 -5.04769,6.39589 -7.47663,8.64486 -35.83261,14.68072 -88.58752,7.97387 -133.644862,-1.40187 -5.253783,-5.04122 -4.610874,-7.1341 -5.140187,-9.81309 z"
       style="fill:#0b2228;fill-rule:evenodd;stroke:#000000;stroke-width:1px;stroke-linecap:butt;stroke-linejoin:miter;stroke-opacity:1" />
    <path
       sodipodi:nodetypes="cc"
       inkscape:connector-curvature="0"
       id="path4228"
       d="m 80.841122,573.95887 c -2.827539,-5.37211 -0.625181,-12.15471 0.700934,-18.69159"
       style="fill:none;fill-rule:evenodd;stroke:#000000;stroke-width:1px;stroke-linecap:butt;stroke-linejoin:miter;stroke-opacity:1" />
    <path
       sodipodi:nodetypes="cc"
       inkscape:connector-curvature="0"
       id="path4230"
       d="m 89.485981,575.59438 c -1.494911,-6.18799 -0.755604,-12.34002 2.102804,-18.45794"
       style="fill:none;fill-rule:evenodd;stroke:#000000;stroke-width:1px;stroke-linecap:butt;stroke-linejoin:miter;stroke-opacity:1" />
    <path
       sodipodi:nodetypes="cc"
       inkscape:connector-curvature="0"
       id="path4232"
       d="m 131.30841,580.73457 c -2.31663,-7.73351 -0.28348,-13.72711 0.23365,-20.32711"
       style="fill:none;fill-rule:evenodd;stroke:#000000;stroke-width:1px;stroke-linecap:butt;stroke-linejoin:miter;stroke-opacity:1" />
    <path
       sodipodi:nodetypes="cc"
       inkscape:connector-curvature="0"
       id="path4234"
       d="m 159.34579,580.26728 c 3.23464,-6.82893 3.37853,-14.0442 1.63552,-21.49533"
       style="fill:none;fill-rule:evenodd;stroke:#000000;stroke-width:1px;stroke-linecap:butt;stroke-linejoin:miter;stroke-opacity:1" />
    <path
       sodipodi:nodetypes="cc"
       inkscape:connector-curvature="0"
       id="path4236"
       d="m 182.71028,576.29531 c 2.32117,-6.85868 0.57504,-15.07312 -0.70093,-23.13084"
       style="fill:none;fill-rule:evenodd;stroke:#000000;stroke-width:1px;stroke-linecap:butt;stroke-linejoin:miter;stroke-opacity:1" />
    <path
       sodipodi:nodetypes="cc"
       inkscape:connector-curvature="0"
       id="path4238"
       d="m 190.42056,574.19251 c 2.97088,-7.44001 0.67851,-16.3838 -0.46729,-25"
       style="fill:none;fill-rule:evenodd;stroke:#000000;stroke-width:1px;stroke-linecap:butt;stroke-linejoin:miter;stroke-opacity:1" />
    <path
       sodipodi:nodetypes="ccccc"
       inkscape:connector-curvature="0"
       id="path4240"
       d="m 230.03639,521.18479 c 8.82146,-5.36862 17.64291,-24.22884 26.46437,-81.42881 l -37.8644,2.44286 c 15.80785,20.5721 7.93089,46.13048 4.07144,70.84307 z"
       style="fill:#fcf2d6;fill-rule:evenodd;stroke:#000000;stroke-width:1px;stroke-linecap:butt;stroke-linejoin:miter;stroke-opacity:1;fill-opacity:1" />
    <path
       sodipodi:nodetypes="cccccc"
       inkscape:connector-curvature="0"
       id="path4242"
       d="m 226.3721,517.11335 -2.03572,17.5072 c -3.46937,6.05791 -6.16146,4.34293 -8.55003,-0.40715 l 0,-6.92145 7.32859,-13.43575 z"
       style="fill:#0b2228;fill-rule:evenodd;stroke:#000000;stroke-width:1px;stroke-linecap:butt;stroke-linejoin:miter;stroke-opacity:1;fill-opacity:1" />
    <path
       sodipodi:nodetypes="ccccccccc"
       inkscape:connector-curvature="0"
       id="path4244"
       d="m 225.96495,528.92053 5.70002,0 c 1.48222,14.66782 3.80852,28.49157 -2.03572,50.48586 -1.84468,3.06741 -2.24415,6.49613 -8.14288,8.55003 l -13.8429,2.85001 c -1.33122,-9.5778 -3.03382,-18.04149 -6.51431,-21.1715 l 2.03573,-25.65007 10.99288,-15.06433 z"
       style="fill:#0b2228;fill-rule:evenodd;stroke:#000000;stroke-width:1px;stroke-linecap:butt;stroke-linejoin:miter;stroke-opacity:1;fill-opacity:1" />
    <path
       sodipodi:nodetypes="cccccc"
       inkscape:connector-curvature="0"
       id="path4248"
       d="m 220.67208,587.95642 -0.40714,7.32859 c -0.24769,0.3431 0.40504,3.2829 -3.25716,3.25715 l -8.95717,-0.40714 0,-8.14288 z"
       style="fill:#181818;fill-rule:evenodd;stroke:#000000;stroke-width:1px;stroke-linecap:butt;stroke-linejoin:miter;stroke-opacity:1;fill-opacity:1" />
    <path
       sodipodi:nodetypes="cccccc"
       inkscape:connector-curvature="0"
       id="path4250"
       d="m 214.56492,598.54216 0.40714,4.07144 c -0.0672,1.09173 -0.73358,1.8521 -2.44286,2.03572 l -4.07144,0.40715 0,-6.92145 z"
       style="fill:#181818;fill-rule:evenodd;stroke:#000000;stroke-width:1px;stroke-linecap:butt;stroke-linejoin:miter;stroke-opacity:1;fill-opacity:1" />
    <path
       sodipodi:nodetypes="ccccccccccccccc"
       inkscape:connector-curvature="0"
       id="path4252"
       d="m 61.58672,570.5275 c -15.470953,16.97475 -11.040802,44.80465 -4.56198,73.752 6.470912,18.96871 5.300826,35.39042 6.082639,52.46276 l -8.363628,24.33056 c 2.268931,5.05689 2.311826,10.30574 15.206597,14.44626 l 6.082639,0 c 19.862849,6.30055 38.425263,6.09895 56.264413,2.28099 l 4.56198,-4.56198 c 2.47488,2.39401 16.56878,6.63619 32.69418,5.32231 10.53198,-2.68932 24.3238,-4.56367 27.37188,-9.12396 2.75655,-13.14772 4.59291,-25.37526 5.32231,-36.49583 10.27259,-21.9818 8.29113,-36.96129 4.56198,-50.9421 1.01615,-11.39782 2.43634,-21.58352 1.52066,-38.77682 -0.98212,-12.01263 -0.9104,-24.31267 -6.84297,-34.97518 -42.36745,19.24683 -91.7369,8.15169 -139.9007,2.28099 z"
       style="fill:#00112b;fill-rule:evenodd;stroke:#000000;stroke-width:1px;stroke-linecap:butt;stroke-linejoin:miter;stroke-opacity:1" />
    <path
       sodipodi:nodetypes="ccccc"
       inkscape:connector-curvature="0"
       id="path4254"
       d="m 137.63441,732.48816 3.76344,-24.73118 c -2.12151,-9.6484 -0.37055,-15.42432 3.22581,-19.35484 4.54854,-11.65885 11.04422,-22.21822 3.2258,-40.86022 1.07527,-16.87707 2.15054,-45.51838 3.22581,-68.27957"
       style="fill:none;fill-rule:evenodd;stroke:#000000;stroke-width:1px;stroke-linecap:butt;stroke-linejoin:miter;stroke-opacity:1" />
    <path
       sodipodi:nodetypes="ccc"
       inkscape:connector-curvature="0"
       id="path4256"
       d="m 149.46237,623.88601 c 4.63457,-1.35419 8.94477,-4.00584 10.75268,-16.66667 l 0,-29.03226"
       style="fill:none;fill-rule:evenodd;stroke:#000000;stroke-width:1px;stroke-linecap:butt;stroke-linejoin:miter;stroke-opacity:1" />
    <path
       sodipodi:nodetypes="ccccccc"
       inkscape:connector-curvature="0"
       id="path4258"
       d="m 104.83871,652.91827 c -8.449005,3.33161 -17.532175,4.09824 -27.419355,1.6129 l -2.688172,29.56989 13.44086,12.36559 12.365587,-8.60215 3.22581,-6.45161 z"
       style="fill:none;fill-rule:evenodd;stroke:#000000;stroke-width:1px;stroke-linecap:butt;stroke-linejoin:miter;stroke-opacity:1" />
    <path
       sodipodi:nodetypes="cc"
       inkscape:connector-curvature="0"
       id="path4260"
       d="m 76.344086,663.13332 c 9.118373,0.20106 17.067655,1.8602 27.419354,-0.53763"
       style="fill:none;fill-rule:evenodd;stroke:#000000;stroke-width:1px;stroke-linecap:butt;stroke-linejoin:miter;stroke-opacity:1" />
    <path
       inkscape:connector-curvature="0"
       id="path4262"
       d="m 89.784946,664.20859 -0.537634,32.7957"
       style="fill:none;fill-rule:evenodd;stroke:#000000;stroke-width:1px;stroke-linecap:butt;stroke-linejoin:miter;stroke-opacity:1" />
    <path
       sodipodi:nodetypes="ccc"
       inkscape:connector-curvature="0"
       id="path4264"
       d="m 52.150538,622.27311 c 16.814253,3.47429 26.340982,-6.58539 23.118279,-40.32258 l -21.505376,-0.53764"
       style="fill:none;fill-rule:evenodd;stroke:#000000;stroke-width:1px;stroke-linecap:butt;stroke-linejoin:miter;stroke-opacity:1" />
    <path
       sodipodi:nodetypes="cc"
       inkscape:connector-curvature="0"
       id="path4266"
       d="m 51.612903,587.8645 c 6.663975,5.02465 15.206397,5.35319 24.731183,3.22581"
       style="fill:none;fill-rule:evenodd;stroke:#000000;stroke-width:1px;stroke-linecap:butt;stroke-linejoin:miter;stroke-opacity:1" />
    <path
       inkscape:connector-curvature="0"
       id="path4268"
       d="m 60.752688,591.62794 -2.688172,31.72043"
       style="fill:none;fill-rule:evenodd;stroke:#000000;stroke-width:1px;stroke-linecap:butt;stroke-linejoin:miter;stroke-opacity:1" />
    <path
       sodipodi:nodetypes="cccccccccccc"
       inkscape:connector-curvature="0"
       id="path4270"
       d="m 63.44086,732.48816 c 5.528483,24.01434 3.604081,48.02867 -3.763441,72.04301 -1.008822,6.10875 -1.410873,11.15665 1.612904,10.21505 l 97.849467,-0.53763 3.76344,-3.76344 c 14.66093,4.09087 32.15051,1.01381 49.46236,-1.6129 10.93967,-16.13249 10.36093,-27.14568 8.60215,-37.63441 -0.37641,-3.03626 -6.55415,-20.40372 -31.18279,-16.12904 l 2.15053,-21.50537 c -21.37494,5.28572 -35.38414,7.81877 -54.30107,0 l -5.37635,5.37634 c -22.43096,1.91435 -44.976622,2.91102 -68.8172,-6.45161 z"
       style="fill:#1c2224;fill-rule:evenodd;stroke:#000000;stroke-width:1px;stroke-linecap:butt;stroke-linejoin:miter;stroke-opacity:1" />
    <path
       sodipodi:nodetypes="ccccc"
       inkscape:connector-curvature="0"
       id="path4272"
       d="m 60.215054,814.74622 c -2.17667,1.08741 -5.916469,0.2209 -2.688172,8.06452 39.894858,0.63799 82.608338,1.87998 103.225808,-1.6129 18.41193,0.46736 35.5301,-1.00593 51.07527,-4.83871 l 0,-6.98925"
       style="fill:#000000;fill-rule:evenodd;stroke:#000000;stroke-width:1px;stroke-linecap:butt;stroke-linejoin:miter;stroke-opacity:1" />
    <path
       sodipodi:nodetypes="cc"
       inkscape:connector-curvature="0"
       id="path4274"
       d="m 72.043011,815.82149 c 3.571757,-20.16827 -3.051384,-22.74763 -7.526882,-29.03225"
       style="fill:none;fill-rule:evenodd;stroke:#000000;stroke-width:1px;stroke-linecap:butt;stroke-linejoin:miter;stroke-opacity:1" />
    <path
       sodipodi:nodetypes="cccc"
       inkscape:connector-curvature="0"
       id="path4276"
       d="m 99.462366,788.40214 c 20.360894,-26.12225 35.249694,-27.62004 50.000004,-28.49463 13.54407,2.53156 22.90864,9.59091 19.35483,30.64517 l -5.91397,20.4301"
       style="fill:none;fill-rule:evenodd;stroke:#000000;stroke-width:1px;stroke-linecap:butt;stroke-linejoin:miter;stroke-opacity:1" />
    <path
       sodipodi:nodetypes="cc"
       inkscape:connector-curvature="0"
       id="path4278"
       d="m 112.90323,773.88601 c -6.25921,1.26767 -14.470633,0.58313 -22.043015,0.53763"
       style="fill:none;fill-rule:evenodd;stroke:#000000;stroke-width:1px;stroke-linecap:butt;stroke-linejoin:miter;stroke-opacity:1" />
    <path
       sodipodi:nodetypes="cc"
       inkscape:connector-curvature="0"
       id="path4280"
       d="m 132.25806,754.53117 c -12.3686,10.18798 -26.00433,8.97177 -39.784942,6.45161"
       style="fill:none;fill-rule:evenodd;stroke:#000000;stroke-width:1px;stroke-linecap:butt;stroke-linejoin:miter;stroke-opacity:1" />
    <path
       sodipodi:nodetypes="cc"
       inkscape:connector-curvature="0"
       id="path4282"
       d="m 131.72043,744.85375 c -8.60112,5.13825 -22.59475,5.78275 -39.784946,3.76344"
       style="fill:none;fill-rule:evenodd;stroke:#000000;stroke-width:1px;stroke-linecap:butt;stroke-linejoin:miter;stroke-opacity:1" />
    <path
       sodipodi:nodetypes="cc"
       inkscape:connector-curvature="0"
       id="path4284"
       d="m 190.86022,742.70321 c -8.83647,3.1707 -19.32377,4.69057 -33.87097,2.15054"
       style="fill:none;fill-rule:evenodd;stroke:#000000;stroke-width:1px;stroke-linecap:butt;stroke-linejoin:miter;stroke-opacity:1" />
    <path
       sodipodi:nodetypes="cc"
       inkscape:connector-curvature="0"
       id="path4286"
       d="m 189.78495,752.38063 c -10.40115,4.45277 -22.05676,3.88765 -33.87097,2.68817"
       style="fill:none;fill-rule:evenodd;stroke:#000000;stroke-width:1px;stroke-linecap:butt;stroke-linejoin:miter;stroke-opacity:1" />
    <path
       inkscape:connector-curvature="0"
       id="path4288"
       d="m 179.03226,763.67096 -18.81721,0"
       style="fill:none;fill-rule:evenodd;stroke:#000000;stroke-width:1.02985728px;stroke-linecap:butt;stroke-linejoin:miter;stroke-opacity:1" />
    <ellipse
       ry="2.7553763"
       rx="2.4865592"
       cy="748.28119"
       cx="90.120972"
       id="path4290"
       style="opacity:1;fill:#999999;fill-opacity:1;stroke:#999999;stroke-width:0.5;stroke-linejoin:miter;stroke-miterlimit:4;stroke-dasharray:none;stroke-dashoffset:0;stroke-opacity:1" />
    <ellipse
       ry="2.7553763"
       rx="2.6881721"
       cy="760.64679"
       cx="90.053764"
       id="path4292"
       style="opacity:1;fill:#999999;fill-opacity:1;stroke:#999999;stroke-width:0.5;stroke-linejoin:miter;stroke-miterlimit:4;stroke-dasharray:none;stroke-dashoffset:0;stroke-opacity:1" />
    <circle
       r="2.6881721"
       cy="773.61719"
       cx="89.650536"
       id="path4294"
       style="opacity:1;fill:#999999;fill-opacity:1;stroke:#999999;stroke-width:0.5;stroke-linejoin:miter;stroke-miterlimit:4;stroke-dasharray:none;stroke-dashoffset:0;stroke-opacity:1" />
    <ellipse
       ry="2.6209679"
       rx="2.4865592"
       cy="745.05536"
       cx="154.90591"
       id="path4296"
       style="opacity:1;fill:#999999;fill-opacity:1;stroke:#999999;stroke-width:0.5;stroke-linejoin:miter;stroke-miterlimit:4;stroke-dasharray:none;stroke-dashoffset:0;stroke-opacity:1" />
    <ellipse
       ry="2.217742"
       rx="2.5537634"
       cy="755.13599"
       cx="153.49463"
       id="path4298"
       style="opacity:1;fill:#999999;fill-opacity:1;stroke:#999999;stroke-width:0.5;stroke-linejoin:miter;stroke-miterlimit:4;stroke-dasharray:none;stroke-dashoffset:0;stroke-opacity:1" />
    <path
       sodipodi:nodetypes="cc"
       inkscape:connector-curvature="0"
       id="path4300"
       d="m 168.6828,773.61719 c 6.89964,-7.38949 13.79928,-13.75214 20.69892,-18.27957"
       style="fill:none;fill-rule:evenodd;stroke:#000000;stroke-width:1px;stroke-linecap:butt;stroke-linejoin:miter;stroke-opacity:1" />
    <ellipse
       ry="4.2857537"
       rx="3.4694197"
       cy="227.14136"
       cx="146.32788"
       id="path4304"
       style="opacity:1;fill:#ffffff;fill-opacity:1;stroke:#ffffff;stroke-width:0.5;stroke-linejoin:miter;stroke-miterlimit:4;stroke-dasharray:none;stroke-dashoffset:0;stroke-opacity:1" />
    <ellipse
       ry="3.6735034"
       rx="2.6530857"
       cy="231.83528"
       cx="223.47145"
       id="path4306"
       style="opacity:1;fill:#ffffff;fill-opacity:1;stroke:#ffffff;stroke-width:0.5;stroke-linejoin:miter;stroke-miterlimit:4;stroke-dasharray:none;stroke-dashoffset:0;stroke-opacity:1" />
    <path
       inkscape:connector-curvature="0"
       id="path4180"
       d="m 116.35551,361.63471 27.7767,11.86297 12.73099,-19.38582 -39.35033,-15.04572 z"
       style="fill:#00112b;fill-rule:evenodd;stroke:#000000;stroke-width:1px;stroke-linecap:butt;stroke-linejoin:miter;stroke-opacity:1" />
    <path
       inkscape:connector-curvature="0"
       id="path4182"
       d="m 161.49265,356.42658 6.36549,17.0711 25.17263,-10.7056 -0.86802,-13.59901 z"
       style="fill:#00112b;fill-rule:evenodd;stroke:#000000;stroke-width:1px;stroke-linecap:butt;stroke-linejoin:miter;stroke-opacity:1" />
    <path
       inkscape:connector-curvature="0"
       id="path4184"
       d="m 147.89364,368.57889 8.68021,-14.17769 5.49748,1.4467 3.18274,11.57363 -5.78681,42.24373 -17.64978,-2.02538 z"
       style="fill:none;fill-rule:evenodd;stroke:#000000;stroke-width:1px;stroke-linecap:butt;stroke-linejoin:miter;stroke-opacity:1" />
    <circle
       r="3.6735034"
       cy="365.30591"
       cx="140.40945"
       id="path4331"
       style="opacity:1;fill:#999999;fill-opacity:1;stroke:#999999;stroke-width:0.5;stroke-linejoin:miter;stroke-miterlimit:4;stroke-dasharray:none;stroke-dashoffset:0;stroke-opacity:1" />
    <ellipse
       ry="3.4694197"
       rx="3.2653363"
       cy="366.32632"
       cx="157.96065"
       id="path4333"
       style="opacity:1;fill:#999999;fill-opacity:1;stroke:#999999;stroke-width:0.5;stroke-linejoin:miter;stroke-miterlimit:4;stroke-dasharray:none;stroke-dashoffset:0;stroke-opacity:1" />
    <circle
       r="3.0612528"
       cy="366.32632"
       cx="175.30774"
       id="path4335"
       style="opacity:1;fill:#999999;fill-opacity:1;stroke:#999999;stroke-width:0.5;stroke-linejoin:miter;stroke-miterlimit:4;stroke-dasharray:none;stroke-dashoffset:0;stroke-opacity:1" />
    <ellipse
       ry="3.6735034"
       rx="3.8775868"
       cy="384.48975"
       cx="153.26672"
       id="path4337"
       style="opacity:1;fill:#999999;fill-opacity:1;stroke:#999999;stroke-width:0.5;stroke-linejoin:miter;stroke-miterlimit:4;stroke-dasharray:none;stroke-dashoffset:0;stroke-opacity:1" />
    <ellipse
       ry="3.4694197"
       rx="3.8775868"
       cy="402.24503"
       cx="153.67488"
       id="path4339"
       style="opacity:1;fill:#999999;fill-opacity:1;stroke:#999999;stroke-width:0.5;stroke-linejoin:miter;stroke-miterlimit:4;stroke-dasharray:none;stroke-dashoffset:0;stroke-opacity:1" />
    <ellipse
       ry="2.8571692"
       rx="3.2653363"
       cy="429.7963"
       cx="28.163525"
       id="path4341"
       style="opacity:1;fill:#999999;fill-opacity:1;stroke:#999999;stroke-width:0.5;stroke-linejoin:miter;stroke-miterlimit:4;stroke-dasharray:none;stroke-dashoffset:0;stroke-opacity:1" />
    <circle
       r="2.6530857"
       cy="436.93921"
       cx="247.5533"
       id="path4347"
       style="opacity:1;fill:#999999;fill-opacity:1;stroke:#999999;stroke-width:0.5;stroke-linejoin:miter;stroke-miterlimit:4;stroke-dasharray:none;stroke-dashoffset:0;stroke-opacity:1" />
    <ellipse
       ry="2.4490023"
       rx="3.0612528"
       cy="586.12427"
       cx="62.653641"
       id="path4349"
       style="opacity:1;fill:#999999;fill-opacity:1;stroke:#999999;stroke-width:0.5;stroke-linejoin:miter;stroke-miterlimit:4;stroke-dasharray:none;stroke-dashoffset:0;stroke-opacity:1" />
    <ellipse
       ry="2.6530857"
       rx="3.6735034"
       cy="660.61475"
       cx="90.613083"
       id="path4351"
       style="opacity:1;fill:#999999;fill-opacity:1;stroke:#999999;stroke-width:0.5;stroke-linejoin:miter;stroke-miterlimit:4;stroke-dasharray:none;stroke-dashoffset:0;stroke-opacity:1" />
    <circle
       r="2.2449186"
       cy="533.26666"
       cx="220.61429"
       id="path4353"
       style="opacity:1;fill:#999999;fill-opacity:1;stroke:#999999;stroke-width:0.5;stroke-linejoin:miter;stroke-miterlimit:4;stroke-dasharray:none;stroke-dashoffset:0;stroke-opacity:1" />
    <path
       sodipodi:nodetypes="ccccc"
       inkscape:connector-curvature="0"
       id="path4196"
       d="m 174.10141,427.76006 c 13.28511,1.56122 21.8751,0.43953 27.5701,-2.33645 3.25115,13.28517 -0.20404,24.33489 -3.27103,35.51402 -8.64187,13.01675 -15.46734,8.7777 -21.96263,1.40187 -2.04482,-9.24768 -5.42833,-16.0857 -2.33644,-34.57944 z"
       style="fill:none;fill-rule:evenodd;stroke:#000000;stroke-width:1px;stroke-linecap:butt;stroke-linejoin:miter;stroke-opacity:1" />
    <path
       sodipodi:nodetypes="ccccc"
       inkscape:connector-curvature="0"
       id="path4198"
       d="m 83.91449,424.02174 c 13.079926,5.94853 22.52123,3.71016 31.30841,0 -0.0357,12.46106 0.36308,24.92212 -2.80374,37.38318 -11.75898,14.39047 -22.589997,4.40631 -26.635511,0.46729 -5.934365,-17.92813 -1.717947,-25.70549 -1.869159,-37.85047 z"
       style="fill:none;fill-rule:evenodd;stroke:#000000;stroke-width:1px;stroke-linecap:butt;stroke-linejoin:miter;stroke-opacity:1" />
    <path
       sodipodi:nodetypes="cc"
       inkscape:connector-curvature="0"
       id="path4202"
       d="m 83.91449,431.96567 c 12.128736,6.63543 21.45951,4.87697 30.37383,1.86916"
       style="fill:none;fill-rule:evenodd;stroke:#000000;stroke-width:1px;stroke-linecap:butt;stroke-linejoin:miter;stroke-opacity:1" />
    <path
       inkscape:connector-curvature="0"
       id="path4204"
       d="m 98.867756,436.17127 -0.46729,32.24299"
       style="fill:none;fill-rule:evenodd;stroke:#000000;stroke-width:1px;stroke-linecap:butt;stroke-linejoin:miter;stroke-opacity:1" />
    <path
       sodipodi:nodetypes="cc"
       inkscape:connector-curvature="0"
       id="path4206"
       d="m 172.52786,434.30211 c 8.40725,0.21926 12.83593,2.24435 31.01281,-0.46728"
       style="fill:none;fill-rule:evenodd;stroke:#000000;stroke-width:1px;stroke-linecap:butt;stroke-linejoin:miter;stroke-opacity:1" />
    <path
       inkscape:connector-curvature="0"
       id="path4208"
       d="m 189.52198,434.30211 -2.33645,35.04673"
       style="fill:none;fill-rule:evenodd;stroke:#000000;stroke-width:1px;stroke-linecap:butt;stroke-linejoin:miter;stroke-opacity:1" />
    <ellipse
       ry="2.8571692"
       rx="3.0612528"
       cy="432.2453"
       cx="97.960083"
       id="path4343"
       style="opacity:1;fill:#999999;fill-opacity:1;stroke:#999999;stroke-width:0.5;stroke-linejoin:miter;stroke-miterlimit:4;stroke-dasharray:none;stroke-dashoffset:0;stroke-opacity:1" />
    <ellipse
       ry="2.6530857"
       rx="3.0612528"
       cy="431.22488"
       cx="191.02217"
       id="path4345"
       style="opacity:1;fill:#999999;fill-opacity:1;stroke:#999999;stroke-width:0.5;stroke-linejoin:miter;stroke-miterlimit:4;stroke-dasharray:none;stroke-dashoffset:0;stroke-opacity:1" />
    <path
       inkscape:connector-curvature="0"
       id="path4403"
       d="m 131.83795,762.45243 0.81634,-22.85736"
       style="fill:none;fill-rule:evenodd;stroke:#000000;stroke-width:1px;stroke-linecap:butt;stroke-linejoin:miter;stroke-opacity:1" />
    <path
       sodipodi:nodetypes="ccccc"
       inkscape:connector-curvature="0"
       id="path4176"
       d="m 98.402353,329.24141 -0.578681,41.08638 c 6.172608,15.37821 12.345198,14.69744 18.517808,2.31472 l 1.15736,-34.1422 z"
       style="fill:#0b2228;fill-rule:evenodd;stroke:#000000;stroke-width:1px;stroke-linecap:butt;stroke-linejoin:miter;stroke-opacity:1;fill-opacity:1" />
    <path
       sodipodi:nodetypes="ccccc"
       inkscape:connector-curvature="0"
       id="path4178"
       d="m 191.85938,348.04856 1.15737,26.90867 c 7.22527,21.25998 11.98542,11.70587 16.78175,2.60407 l 1.73605,-35.01022 z"
       style="fill:#0b2228;fill-rule:evenodd;stroke:#000000;stroke-width:1px;stroke-linecap:butt;stroke-linejoin:miter;stroke-opacity:1;fill-opacity:1" />
    <path
       sodipodi:nodetypes="ccccc"
       inkscape:connector-curvature="0"
       id="path4429"
       d="m 231.0774,528.41121 -5.65437,0.0743 0.93631,-10.8456 3.95794,3.17012 z"
       style="fill:#1a1a1a;fill-rule:evenodd;stroke:#000000;stroke-width:1px;stroke-linecap:butt;stroke-linejoin:miter;stroke-opacity:1" />
    <circle
       r="2.3048892"
       cy="552.63708"
       cx="44.945339"
       id="path4431"
       style="opacity:1;fill:#ff8080;fill-opacity:1;stroke:#ff8080;stroke-width:0.5;stroke-linejoin:miter;stroke-miterlimit:4;stroke-dasharray:none;stroke-dashoffset:0;stroke-opacity:1" />
    <circle
       r="2.016778"
       cy="554.65387"
       cx="61.079563"
       id="path4433"
       style="opacity:1;fill:#ff8080;fill-opacity:1;stroke:#ff8080;stroke-width:0.5;stroke-linejoin:miter;stroke-miterlimit:4;stroke-dasharray:none;stroke-dashoffset:0;stroke-opacity:1" />
    <ellipse
       ry="1.008389"
       rx="1.2965002"
       cy="546.44269"
       cx="69.866951"
       id="path4435"
       style="opacity:1;fill:#ff8080;fill-opacity:1;stroke:#ff8080;stroke-width:0.5;stroke-linejoin:miter;stroke-miterlimit:4;stroke-dasharray:none;stroke-dashoffset:0;stroke-opacity:1" />
    <ellipse
       ry="2.1608336"
       rx="1.7286669"
       cy="541.25665"
       cx="75.485123"
       id="path4437"
       style="opacity:1;fill:#ff8080;fill-opacity:1;stroke:#ff8080;stroke-width:0.5;stroke-linejoin:miter;stroke-miterlimit:4;stroke-dasharray:none;stroke-dashoffset:0;stroke-opacity:1" />
    <ellipse
       ry="1.1524446"
       rx="1.2965002"
       cy="525.84271"
       cx="79.08651"
       id="path4439"
       style="opacity:1;fill:#ff8080;fill-opacity:1;stroke:#ff8080;stroke-width:0.5;stroke-linejoin:miter;stroke-miterlimit:4;stroke-dasharray:none;stroke-dashoffset:0;stroke-opacity:1" />
    <ellipse
       ry="1.5846113"
       rx="1.2965002"
       cy="534.91821"
       cx="81.967621"
       id="path4441"
       style="opacity:1;fill:#ff8080;fill-opacity:1;stroke:#ff8080;stroke-width:0.5;stroke-linejoin:miter;stroke-miterlimit:4;stroke-dasharray:none;stroke-dashoffset:0;stroke-opacity:1" />
    <ellipse
       ry="1.8727225"
       rx="1.4405557"
       cy="546.15454"
       cx="30.827892"
       id="path4443"
       style="opacity:1;fill:#ff8080;fill-opacity:1;stroke:#ff8080;stroke-width:0.5;stroke-linejoin:miter;stroke-miterlimit:4;stroke-dasharray:none;stroke-dashoffset:0;stroke-opacity:1" />
    <circle
       r="1.5846113"
       cy="556.23846"
       cx="39.039059"
       id="path4445"
       style="opacity:1;fill:#ff8080;fill-opacity:1;stroke:#ff8080;stroke-width:0.5;stroke-linejoin:miter;stroke-miterlimit:4;stroke-dasharray:none;stroke-dashoffset:0;stroke-opacity:1" />
    <ellipse
       ry="1.5846113"
       rx="2.016778"
       cy="549.61188"
       cx="37.454449"
       id="path4447"
       style="opacity:1;fill:#ff8080;fill-opacity:1;stroke:#ff8080;stroke-width:0.5;stroke-linejoin:miter;stroke-miterlimit:4;stroke-dasharray:none;stroke-dashoffset:0;stroke-opacity:1" />
    <ellipse
       ry="1.7286669"
       rx="1.8727225"
       cy="556.09442"
       cx="52.580284"
       id="path4449"
       style="opacity:1;fill:#ff8080;fill-opacity:1;stroke:#ff8080;stroke-width:0.5;stroke-linejoin:miter;stroke-miterlimit:4;stroke-dasharray:none;stroke-dashoffset:0;stroke-opacity:1" />
    <circle
       r="1.8727225"
       cy="552.49298"
       cx="69.578842"
       id="path4451"
       style="opacity:1;fill:#ff8080;fill-opacity:1;stroke:#ff8080;stroke-width:0.5;stroke-linejoin:miter;stroke-miterlimit:4;stroke-dasharray:none;stroke-dashoffset:0;stroke-opacity:1" />
    <ellipse
       ry="2.3048892"
       rx="2.1608336"
       cy="520.94482"
       cx="73.036179"
       id="path4453"
       style="opacity:1;fill:#ff8080;fill-opacity:1;stroke:#ff8080;stroke-width:0.5;stroke-linejoin:miter;stroke-miterlimit:4;stroke-dasharray:none;stroke-dashoffset:0;stroke-opacity:1" />
    <ellipse
       ry="1.5846113"
       rx="1.7286669"
       cy="548.45947"
       cx="61.943897"
       id="path4455"
       style="opacity:1;fill:#ff8080;fill-opacity:1;stroke:#ff8080;stroke-width:0.5;stroke-linejoin:miter;stroke-miterlimit:4;stroke-dasharray:none;stroke-dashoffset:0;stroke-opacity:1" />
    <circle
       r="1.2965002"
       cy="544.13776"
       cx="43.072617"
       id="path4457"
       style="opacity:1;fill:#ff8080;fill-opacity:1;stroke:#ff8080;stroke-width:0.5;stroke-linejoin:miter;stroke-miterlimit:4;stroke-dasharray:none;stroke-dashoffset:0;stroke-opacity:1" />
    <path
       sodipodi:nodetypes="ccccc"
       inkscape:connector-curvature="0"
       id="path4459"
       d="m 111.45685,498.72697 0.65951,-19.45549 c 2.24748,-0.51015 3.89856,-2.33803 7.58434,0.32976 1.64086,1.65272 2.82045,3.53608 0.98926,6.92483 -1.98593,1.14304 -5.08848,1.25236 -8.82678,-0.23317"
       style="fill:none;fill-rule:evenodd;stroke:#000000;stroke-width:1px;stroke-linecap:butt;stroke-linejoin:miter;stroke-opacity:1" />
    <path
       sodipodi:nodetypes="ccccc"
       inkscape:connector-curvature="0"
       id="path4461"
       d="m 127.6148,480.26075 c 1.09881,-2.38048 4.84223,-2.49336 6.26532,0.32975 1.79491,6.44529 1.27114,11.92447 -0.6595,16.81745 -2.6517,2.40497 -4.9454,1.26882 -5.91557,-0.25317 -1.278,-6.275 -1.52036,-11.55146 0.30975,-16.89403 z"
       style="fill:none;fill-rule:evenodd;stroke:#000000;stroke-width:1px;stroke-linecap:butt;stroke-linejoin:miter;stroke-opacity:1" />
    <path
       sodipodi:nodetypes="ccc"
       inkscape:connector-curvature="0"
       id="path4463"
       d="m 137.604,478.82171 0.56293,19.24575 9.71945,-0.54292"
       style="fill:none;fill-rule:evenodd;stroke:#000000;stroke-width:1px;stroke-linecap:butt;stroke-linejoin:miter;stroke-opacity:1" />
    <path
       sodipodi:nodetypes="cc"
       inkscape:connector-curvature="0"
       id="path4465"
       d="m 151.12392,480.23731 0.23317,17.5004"
       style="fill:none;fill-rule:evenodd;stroke:#000000;stroke-width:1px;stroke-linecap:butt;stroke-linejoin:miter;stroke-opacity:1" />
    <path
       inkscape:connector-curvature="0"
       id="path4467"
       d="m 152.34635,478.28222 3.62729,-4.61655"
       style="fill:none;fill-rule:evenodd;stroke:#000000;stroke-width:1px;stroke-linecap:butt;stroke-linejoin:miter;stroke-opacity:1" />
    <path
       sodipodi:nodetypes="cccc"
       inkscape:connector-curvature="0"
       id="path4469"
       d="m 164.20092,479.94756 c -1.65562,-0.97837 -3.00752,-2.38195 -7.45118,0.54293 -1.82969,4.85522 -3.65993,9.71028 0.71608,16.25796 2.47039,0.89092 4.94079,2.1272 7.41118,-0.32976"
       style="fill:none;fill-rule:evenodd;stroke:#000000;stroke-width:1px;stroke-linecap:butt;stroke-linejoin:miter;stroke-opacity:1" />
    <path
       sodipodi:nodetypes="cc"
       inkscape:connector-curvature="0"
       id="path4471"
       d="m 168.29113,480.51049 0.54292,16.23796"
       style="fill:none;fill-rule:evenodd;stroke:#000000;stroke-width:1px;stroke-linecap:butt;stroke-linejoin:miter;stroke-opacity:1" />
    <path
       inkscape:connector-curvature="0"
       id="path4473"
       d="m 173.4506,496.74845 3.6273,-16.15795 5.93557,14.50918"
       style="fill:none;fill-rule:evenodd;stroke:#000000;stroke-width:1px;stroke-linecap:butt;stroke-linejoin:miter;stroke-opacity:1" />
    <path
       inkscape:connector-curvature="0"
       id="path4475"
       d="m 174.76962,491.14263 5.93557,-0.98926"
       style="fill:none;fill-rule:evenodd;stroke:#000000;stroke-width:1px;stroke-linecap:butt;stroke-linejoin:miter;stroke-opacity:1" />
  </g>
</svg>
